<svg xmlns="http://www.w3.org/2000/svg" viewBox="0 0 1579 1572">
    <path d="M 415 476 L 415 477 L 411 481 L 411 482 L 407 486 L 407 487 L 403 491 L 403 492 L 401 494 L 401 495 L 398 498 L 398 499 L 396 501 L 396 502 L 394 504 L 394 505 L 393 506 L 393 507 L 391 509 L 391 510 L 390 511 L 390 512 L 388 514 L 388 515 L 387 516 L 387 517 L 385 519 L 385 520 L 384 521 L 384 522 L 383 523 L 383 524 L 382 525 L 382 526 L 381 527 L 381 528 L 379 530 L 379 531 L 378 532 L 378 533 L 377 534 L 377 535 L 376 536 L 376 537 L 375 538 L 375 540 L 374 541 L 374 542 L 373 543 L 373 544 L 372 545 L 372 546 L 371 547 L 371 549 L 370 550 L 370 551 L 369 552 L 370 553 L 574 553 L 575 552 L 575 551 L 576 550 L 576 549 L 577 548 L 577 547 L 578 546 L 578 545 L 579 544 L 579 543 L 580 542 L 580 541 L 581 540 L 581 539 L 583 537 L 583 536 L 584 535 L 584 534 L 586 532 L 586 531 L 589 528 L 589 527 L 595 521 L 595 520 L 600 515 L 601 515 L 606 510 L 607 510 L 610 507 L 611 507 L 613 505 L 614 505 L 615 504 L 616 504 L 617 503 L 618 503 L 620 501 L 621 501 L 622 500 L 624 500 L 625 499 L 626 499 L 627 498 L 628 498 L 629 497 L 631 497 L 632 496 L 634 496 L 635 495 L 637 495 L 638 494 L 640 494 L 641 493 L 644 493 L 645 492 L 648 492 L 649 491 L 654 491 L 655 490 L 659 490 L 660 489 L 668 489 L 669 488 L 679 488 L 680 487 L 725 487 L 726 488 L 735 488 L 736 489 L 740 489 L 741 490 L 745 490 L 746 491 L 748 491 L 749 492 L 752 492 L 753 493 L 754 493 L 755 494 L 757 494 L 758 495 L 759 495 L 760 496 L 761 496 L 762 497 L 763 497 L 766 500 L 767 500 L 770 503 L 770 504 L 772 506 L 772 507 L 773 508 L 773 509 L 774 510 L 774 515 L 775 516 L 775 517 L 774 518 L 774 523 L 773 524 L 773 526 L 772 527 L 772 529 L 771 530 L 771 531 L 770 532 L 770 533 L 768 535 L 768 536 L 766 538 L 766 539 L 756 549 L 755 549 L 753 551 L 752 551 L 750 553 L 749 553 L 748 554 L 747 554 L 746 555 L 745 555 L 744 556 L 742 556 L 741 557 L 740 557 L 739 558 L 737 558 L 736 559 L 734 559 L 733 560 L 730 560 L 729 561 L 726 561 L 725 562 L 722 562 L 721 563 L 717 563 L 716 564 L 712 564 L 711 565 L 707 565 L 706 566 L 702 566 L 701 567 L 697 567 L 696 568 L 692 568 L 691 569 L 687 569 L 686 570 L 682 570 L 681 571 L 677 571 L 676 572 L 672 572 L 671 573 L 667 573 L 666 574 L 661 574 L 660 575 L 656 575 L 655 576 L 651 576 L 650 577 L 646 577 L 645 578 L 641 578 L 640 579 L 636 579 L 635 580 L 631 580 L 630 581 L 626 581 L 625 582 L 621 582 L 620 583 L 616 583 L 615 584 L 611 584 L 610 585 L 606 585 L 605 586 L 601 586 L 600 587 L 596 587 L 595 588 L 591 588 L 590 589 L 586 589 L 585 590 L 581 590 L 580 591 L 576 591 L 575 592 L 571 592 L 570 593 L 567 593 L 566 594 L 562 594 L 561 595 L 557 595 L 556 596 L 553 596 L 552 597 L 548 597 L 547 598 L 544 598 L 543 599 L 540 599 L 539 600 L 536 600 L 535 601 L 532 601 L 531 602 L 528 602 L 527 603 L 525 603 L 524 604 L 521 604 L 520 605 L 518 605 L 517 606 L 514 606 L 513 607 L 511 607 L 510 608 L 508 608 L 507 609 L 504 609 L 503 610 L 501 610 L 500 611 L 498 611 L 497 612 L 495 612 L 494 613 L 493 613 L 492 614 L 490 614 L 489 615 L 487 615 L 486 616 L 484 616 L 483 617 L 482 617 L 481 618 L 479 618 L 478 619 L 476 619 L 475 620 L 473 620 L 472 621 L 471 621 L 470 622 L 468 622 L 467 623 L 466 623 L 465 624 L 464 624 L 463 625 L 461 625 L 460 626 L 459 626 L 458 627 L 457 627 L 456 628 L 454 628 L 453 629 L 452 629 L 451 630 L 450 630 L 449 631 L 448 631 L 447 632 L 446 632 L 445 633 L 444 633 L 443 634 L 442 634 L 441 635 L 440 635 L 439 636 L 438 636 L 437 637 L 436 637 L 435 638 L 434 638 L 433 639 L 432 639 L 431 640 L 430 640 L 429 641 L 428 641 L 427 642 L 426 642 L 424 644 L 423 644 L 422 645 L 421 645 L 420 646 L 419 646 L 418 647 L 417 647 L 416 648 L 415 648 L 413 650 L 412 650 L 410 652 L 409 652 L 408 653 L 407 653 L 405 655 L 404 655 L 402 657 L 401 657 L 399 659 L 398 659 L 396 661 L 395 661 L 394 662 L 393 662 L 390 665 L 389 665 L 387 667 L 386 667 L 382 671 L 381 671 L 378 674 L 377 674 L 373 678 L 372 678 L 368 682 L 367 682 L 361 688 L 360 688 L 332 716 L 332 717 L 326 723 L 326 724 L 321 729 L 321 730 L 318 733 L 318 734 L 315 737 L 315 738 L 311 742 L 311 743 L 309 745 L 309 746 L 307 748 L 307 749 L 305 751 L 305 752 L 303 754 L 303 755 L 301 757 L 301 758 L 299 760 L 299 761 L 297 763 L 297 764 L 296 765 L 296 766 L 294 768 L 294 769 L 293 770 L 293 771 L 291 773 L 291 774 L 290 775 L 290 776 L 288 778 L 288 779 L 287 780 L 287 781 L 286 782 L 286 783 L 285 784 L 285 785 L 284 786 L 284 787 L 283 788 L 283 789 L 282 790 L 282 791 L 280 793 L 280 794 L 279 795 L 279 796 L 278 797 L 278 798 L 277 799 L 277 800 L 276 801 L 276 802 L 275 803 L 275 805 L 274 806 L 274 807 L 273 808 L 273 809 L 272 810 L 272 811 L 271 812 L 271 813 L 270 814 L 270 816 L 269 817 L 269 818 L 268 819 L 268 820 L 267 821 L 267 823 L 266 824 L 266 825 L 265 826 L 265 827 L 264 828 L 264 830 L 263 831 L 263 833 L 262 834 L 262 835 L 261 836 L 261 838 L 260 839 L 260 840 L 259 841 L 259 843 L 258 844 L 258 846 L 257 847 L 257 849 L 256 850 L 256 852 L 669 852 L 670 853 L 670 854 L 669 855 L 669 857 L 668 858 L 668 860 L 667 861 L 667 863 L 666 864 L 666 867 L 665 868 L 665 870 L 664 871 L 664 873 L 663 874 L 663 876 L 662 877 L 662 879 L 661 880 L 661 882 L 660 883 L 660 885 L 659 886 L 659 888 L 658 889 L 658 891 L 657 892 L 657 894 L 656 895 L 656 897 L 655 898 L 655 901 L 654 902 L 654 904 L 653 905 L 653 907 L 652 908 L 652 910 L 651 911 L 651 913 L 650 914 L 650 916 L 649 917 L 649 919 L 648 920 L 648 922 L 647 923 L 647 925 L 646 926 L 646 928 L 645 929 L 645 931 L 644 932 L 644 935 L 643 936 L 643 938 L 642 939 L 642 941 L 641 942 L 641 944 L 640 945 L 640 947 L 639 948 L 639 950 L 638 951 L 638 953 L 637 954 L 637 956 L 636 957 L 636 959 L 635 960 L 635 962 L 634 963 L 634 965 L 633 966 L 633 968 L 632 969 L 632 972 L 631 973 L 631 975 L 630 976 L 630 978 L 629 979 L 629 981 L 628 982 L 628 984 L 627 985 L 627 987 L 626 988 L 626 990 L 625 991 L 625 993 L 624 994 L 624 996 L 623 997 L 623 999 L 622 1000 L 622 1002 L 621 1003 L 621 1006 L 620 1007 L 620 1009 L 619 1010 L 619 1012 L 618 1013 L 618 1015 L 617 1016 L 617 1018 L 616 1019 L 616 1021 L 615 1022 L 615 1024 L 614 1025 L 614 1027 L 613 1028 L 613 1030 L 612 1031 L 612 1033 L 611 1034 L 611 1036 L 610 1037 L 610 1040 L 609 1041 L 609 1043 L 608 1044 L 608 1046 L 607 1047 L 607 1049 L 606 1050 L 606 1052 L 605 1053 L 605 1055 L 604 1056 L 604 1058 L 603 1059 L 603 1061 L 602 1062 L 602 1064 L 601 1065 L 601 1067 L 600 1068 L 600 1070 L 599 1071 L 599 1073 L 598 1074 L 598 1077 L 597 1078 L 597 1080 L 596 1081 L 596 1083 L 595 1084 L 595 1086 L 594 1087 L 594 1089 L 593 1090 L 593 1092 L 592 1093 L 592 1095 L 591 1096 L 591 1098 L 590 1099 L 590 1101 L 589 1102 L 589 1104 L 588 1105 L 588 1107 L 587 1108 L 587 1111 L 586 1112 L 586 1114 L 585 1115 L 585 1117 L 584 1118 L 584 1120 L 583 1121 L 583 1123 L 582 1124 L 582 1126 L 581 1127 L 581 1129 L 580 1130 L 580 1132 L 579 1133 L 579 1135 L 578 1136 L 578 1138 L 577 1139 L 577 1141 L 576 1142 L 576 1144 L 575 1145 L 575 1148 L 574 1149 L 574 1151 L 573 1152 L 573 1154 L 572 1155 L 572 1157 L 571 1158 L 571 1160 L 570 1161 L 570 1163 L 569 1164 L 569 1166 L 568 1167 L 568 1169 L 567 1170 L 567 1172 L 566 1173 L 566 1175 L 565 1176 L 565 1178 L 564 1179 L 564 1182 L 563 1183 L 563 1185 L 562 1186 L 562 1188 L 561 1189 L 561 1191 L 560 1192 L 560 1194 L 559 1195 L 559 1197 L 558 1198 L 558 1200 L 557 1201 L 557 1203 L 556 1204 L 744 1204 L 744 1203 L 745 1202 L 745 1200 L 746 1199 L 746 1197 L 747 1196 L 747 1194 L 748 1193 L 748 1191 L 749 1190 L 749 1188 L 750 1187 L 750 1185 L 751 1184 L 751 1182 L 752 1181 L 752 1179 L 753 1178 L 753 1176 L 754 1175 L 754 1172 L 755 1171 L 755 1169 L 756 1168 L 756 1166 L 757 1165 L 757 1163 L 758 1162 L 758 1160 L 759 1159 L 759 1157 L 760 1156 L 760 1154 L 761 1153 L 761 1151 L 762 1150 L 762 1148 L 763 1147 L 763 1145 L 764 1144 L 764 1142 L 765 1141 L 765 1139 L 766 1138 L 766 1135 L 767 1134 L 767 1132 L 768 1131 L 768 1129 L 769 1128 L 769 1126 L 770 1125 L 770 1123 L 771 1122 L 771 1120 L 772 1119 L 772 1117 L 773 1116 L 773 1114 L 774 1113 L 774 1111 L 775 1110 L 775 1108 L 776 1107 L 776 1105 L 777 1104 L 777 1102 L 778 1101 L 778 1099 L 779 1098 L 779 1095 L 780 1094 L 780 1092 L 781 1091 L 781 1089 L 782 1088 L 782 1086 L 783 1085 L 783 1083 L 784 1082 L 784 1080 L 785 1079 L 785 1078 L 786 1077 L 787 1077 L 789 1075 L 790 1075 L 792 1073 L 793 1073 L 795 1071 L 796 1071 L 798 1069 L 799 1069 L 801 1067 L 802 1067 L 805 1064 L 806 1064 L 808 1062 L 809 1062 L 811 1060 L 812 1060 L 814 1058 L 815 1058 L 817 1056 L 818 1056 L 820 1054 L 821 1054 L 823 1052 L 824 1052 L 827 1049 L 828 1049 L 830 1047 L 831 1047 L 833 1045 L 834 1045 L 836 1043 L 837 1043 L 839 1041 L 840 1041 L 842 1039 L 843 1039 L 846 1036 L 847 1036 L 849 1034 L 850 1034 L 852 1032 L 853 1032 L 855 1030 L 856 1030 L 858 1028 L 859 1028 L 861 1026 L 862 1026 L 864 1024 L 866 1026 L 866 1028 L 867 1029 L 867 1030 L 868 1031 L 868 1033 L 869 1034 L 869 1035 L 870 1036 L 870 1038 L 871 1039 L 871 1040 L 872 1041 L 872 1043 L 873 1044 L 873 1045 L 874 1046 L 874 1048 L 875 1049 L 875 1050 L 876 1051 L 876 1053 L 877 1054 L 877 1055 L 878 1056 L 878 1058 L 879 1059 L 879 1060 L 880 1061 L 880 1063 L 881 1064 L 881 1065 L 882 1066 L 882 1068 L 883 1069 L 883 1071 L 884 1072 L 884 1073 L 885 1074 L 885 1076 L 886 1077 L 886 1078 L 887 1079 L 887 1081 L 888 1082 L 888 1083 L 889 1084 L 889 1086 L 890 1087 L 890 1088 L 891 1089 L 891 1091 L 892 1092 L 892 1093 L 893 1094 L 893 1096 L 894 1097 L 894 1098 L 895 1099 L 895 1101 L 896 1102 L 896 1103 L 897 1104 L 897 1106 L 898 1107 L 898 1108 L 899 1109 L 899 1111 L 900 1112 L 900 1113 L 901 1114 L 901 1116 L 902 1117 L 902 1118 L 903 1119 L 903 1121 L 904 1122 L 904 1123 L 905 1124 L 905 1126 L 906 1127 L 906 1128 L 907 1129 L 907 1131 L 908 1132 L 908 1133 L 909 1134 L 909 1136 L 910 1137 L 910 1138 L 911 1139 L 911 1141 L 912 1142 L 912 1144 L 913 1145 L 913 1146 L 914 1147 L 914 1149 L 915 1150 L 915 1151 L 916 1152 L 916 1154 L 917 1155 L 917 1156 L 918 1157 L 918 1159 L 919 1160 L 919 1161 L 920 1162 L 920 1164 L 921 1165 L 921 1166 L 922 1167 L 922 1169 L 923 1170 L 923 1171 L 924 1172 L 924 1174 L 925 1175 L 925 1176 L 926 1177 L 926 1179 L 927 1180 L 927 1181 L 928 1182 L 928 1184 L 929 1185 L 929 1186 L 930 1187 L 930 1189 L 931 1190 L 931 1191 L 932 1192 L 932 1194 L 933 1195 L 933 1196 L 934 1197 L 934 1199 L 935 1200 L 935 1201 L 936 1202 L 936 1204 L 1186 1204 L 1185 1203 L 1185 1202 L 1184 1201 L 1184 1199 L 1183 1198 L 1183 1197 L 1182 1196 L 1182 1195 L 1181 1194 L 1181 1193 L 1180 1192 L 1180 1191 L 1179 1190 L 1179 1189 L 1178 1188 L 1178 1187 L 1177 1186 L 1177 1185 L 1176 1184 L 1176 1183 L 1175 1182 L 1175 1181 L 1174 1180 L 1174 1178 L 1173 1177 L 1173 1176 L 1172 1175 L 1172 1174 L 1171 1173 L 1171 1172 L 1170 1171 L 1170 1170 L 1169 1169 L 1169 1168 L 1168 1167 L 1168 1166 L 1167 1165 L 1167 1164 L 1166 1163 L 1166 1162 L 1165 1161 L 1165 1160 L 1164 1159 L 1164 1157 L 1163 1156 L 1163 1155 L 1162 1154 L 1162 1153 L 1161 1152 L 1161 1151 L 1160 1150 L 1160 1149 L 1159 1148 L 1159 1147 L 1158 1146 L 1158 1145 L 1157 1144 L 1157 1143 L 1156 1142 L 1156 1141 L 1155 1140 L 1155 1139 L 1154 1138 L 1154 1136 L 1153 1135 L 1153 1134 L 1152 1133 L 1152 1132 L 1151 1131 L 1151 1130 L 1150 1129 L 1150 1128 L 1149 1127 L 1149 1126 L 1148 1125 L 1148 1124 L 1147 1123 L 1147 1122 L 1146 1121 L 1146 1120 L 1145 1119 L 1145 1118 L 1144 1117 L 1144 1115 L 1143 1114 L 1143 1113 L 1142 1112 L 1142 1111 L 1141 1110 L 1141 1109 L 1140 1108 L 1140 1107 L 1139 1106 L 1139 1105 L 1138 1104 L 1138 1103 L 1137 1102 L 1137 1101 L 1136 1100 L 1136 1099 L 1135 1098 L 1135 1097 L 1134 1096 L 1134 1094 L 1133 1093 L 1133 1092 L 1132 1091 L 1132 1090 L 1131 1089 L 1131 1088 L 1130 1087 L 1130 1086 L 1129 1085 L 1129 1084 L 1128 1083 L 1128 1082 L 1127 1081 L 1127 1080 L 1126 1079 L 1126 1078 L 1125 1077 L 1125 1076 L 1124 1075 L 1124 1073 L 1123 1072 L 1123 1071 L 1122 1070 L 1122 1069 L 1121 1068 L 1121 1067 L 1120 1066 L 1120 1065 L 1119 1064 L 1119 1063 L 1118 1062 L 1118 1061 L 1117 1060 L 1117 1059 L 1116 1058 L 1116 1057 L 1115 1056 L 1115 1055 L 1114 1054 L 1114 1052 L 1113 1051 L 1113 1050 L 1112 1049 L 1112 1048 L 1111 1047 L 1111 1046 L 1110 1045 L 1110 1044 L 1109 1043 L 1109 1042 L 1108 1041 L 1108 1040 L 1107 1039 L 1107 1038 L 1106 1037 L 1106 1036 L 1105 1035 L 1105 1034 L 1104 1033 L 1104 1031 L 1103 1030 L 1103 1029 L 1102 1028 L 1102 1027 L 1101 1026 L 1101 1025 L 1100 1024 L 1100 1023 L 1099 1022 L 1099 1021 L 1098 1020 L 1098 1019 L 1097 1018 L 1097 1017 L 1096 1016 L 1096 1015 L 1095 1014 L 1095 1013 L 1094 1012 L 1094 1010 L 1093 1009 L 1093 1008 L 1092 1007 L 1092 1006 L 1091 1005 L 1091 1004 L 1090 1003 L 1090 1002 L 1089 1001 L 1089 1000 L 1088 999 L 1088 998 L 1087 997 L 1087 996 L 1086 995 L 1086 994 L 1085 993 L 1085 992 L 1084 991 L 1084 989 L 1083 988 L 1083 987 L 1082 986 L 1082 985 L 1081 984 L 1081 983 L 1080 982 L 1080 981 L 1079 980 L 1079 979 L 1078 978 L 1078 977 L 1077 976 L 1077 975 L 1076 974 L 1076 973 L 1075 972 L 1075 971 L 1074 970 L 1074 968 L 1073 967 L 1073 966 L 1072 965 L 1072 964 L 1071 963 L 1071 962 L 1070 961 L 1070 960 L 1069 959 L 1069 958 L 1068 957 L 1068 956 L 1067 955 L 1067 954 L 1066 953 L 1066 952 L 1065 951 L 1065 950 L 1064 949 L 1064 947 L 1063 946 L 1063 945 L 1062 944 L 1062 943 L 1061 942 L 1061 941 L 1060 940 L 1060 939 L 1059 938 L 1059 937 L 1058 936 L 1058 935 L 1057 934 L 1057 933 L 1056 932 L 1056 931 L 1055 930 L 1055 929 L 1054 928 L 1054 926 L 1053 925 L 1053 924 L 1052 923 L 1052 922 L 1051 921 L 1051 920 L 1050 919 L 1050 918 L 1049 917 L 1049 916 L 1051 914 L 1052 914 L 1054 912 L 1055 912 L 1057 910 L 1058 910 L 1060 908 L 1061 908 L 1063 906 L 1064 906 L 1066 904 L 1067 904 L 1069 902 L 1070 902 L 1072 900 L 1073 900 L 1075 898 L 1076 898 L 1078 896 L 1079 896 L 1081 894 L 1082 894 L 1084 892 L 1085 892 L 1087 890 L 1088 890 L 1090 888 L 1091 888 L 1093 886 L 1094 886 L 1096 884 L 1097 884 L 1099 882 L 1100 882 L 1102 880 L 1103 880 L 1105 878 L 1106 878 L 1108 876 L 1109 876 L 1111 874 L 1112 874 L 1114 872 L 1115 872 L 1117 870 L 1118 870 L 1120 868 L 1121 868 L 1123 866 L 1124 866 L 1126 864 L 1127 864 L 1129 862 L 1130 862 L 1132 860 L 1133 860 L 1136 857 L 1137 857 L 1139 855 L 1140 855 L 1142 853 L 1143 853 L 1145 851 L 1146 851 L 1148 849 L 1149 849 L 1151 847 L 1152 847 L 1154 845 L 1155 845 L 1157 843 L 1158 843 L 1160 841 L 1161 841 L 1163 839 L 1164 839 L 1166 837 L 1167 837 L 1169 835 L 1170 835 L 1172 833 L 1173 833 L 1175 831 L 1176 831 L 1178 829 L 1179 829 L 1181 827 L 1182 827 L 1184 825 L 1185 825 L 1187 823 L 1188 823 L 1190 821 L 1191 821 L 1193 819 L 1194 819 L 1196 817 L 1197 817 L 1199 815 L 1200 815 L 1202 813 L 1203 813 L 1205 811 L 1206 811 L 1208 809 L 1209 809 L 1211 807 L 1212 807 L 1214 805 L 1215 805 L 1217 803 L 1218 803 L 1220 801 L 1221 801 L 1223 799 L 1224 799 L 1226 797 L 1227 797 L 1229 795 L 1230 795 L 1233 792 L 1234 792 L 1236 790 L 1237 790 L 1239 788 L 1240 788 L 1242 786 L 1243 786 L 1245 784 L 1246 784 L 1248 782 L 1249 782 L 1251 780 L 1252 780 L 1254 778 L 1255 778 L 1257 776 L 1258 776 L 1260 774 L 1261 774 L 1263 772 L 1264 772 L 1266 770 L 1267 770 L 1269 768 L 1270 768 L 1272 766 L 1273 766 L 1275 764 L 1276 764 L 1278 762 L 1279 762 L 1281 760 L 1282 760 L 1284 758 L 1285 758 L 1287 756 L 1288 756 L 1290 754 L 1291 754 L 1293 752 L 1294 752 L 1296 750 L 1297 750 L 1299 748 L 1300 748 L 1302 746 L 1303 746 L 1305 744 L 1306 744 L 1308 742 L 1309 742 L 1311 740 L 1312 740 L 1314 738 L 1315 738 L 1317 736 L 1318 736 L 1319 735 L 1319 734 L 1072 734 L 1071 735 L 1070 735 L 1068 737 L 1067 737 L 1064 740 L 1063 740 L 1060 743 L 1059 743 L 1057 745 L 1056 745 L 1053 748 L 1052 748 L 1049 751 L 1048 751 L 1046 753 L 1045 753 L 1042 756 L 1041 756 L 1039 758 L 1038 758 L 1035 761 L 1034 761 L 1031 764 L 1030 764 L 1028 766 L 1027 766 L 1024 769 L 1023 769 L 1021 771 L 1020 771 L 1017 774 L 1016 774 L 1013 777 L 1012 777 L 1010 779 L 1009 779 L 1006 782 L 1005 782 L 1002 785 L 1001 785 L 999 787 L 998 787 L 995 790 L 994 790 L 991 793 L 990 793 L 988 795 L 987 795 L 984 798 L 983 798 L 980 801 L 979 801 L 977 803 L 976 803 L 973 806 L 972 806 L 969 809 L 968 809 L 966 811 L 965 811 L 962 814 L 961 814 L 958 817 L 957 817 L 955 819 L 954 819 L 951 822 L 950 822 L 947 825 L 946 825 L 944 827 L 943 827 L 940 830 L 939 830 L 936 833 L 935 833 L 933 835 L 932 835 L 929 838 L 928 838 L 925 841 L 924 841 L 922 843 L 921 843 L 918 846 L 917 846 L 914 849 L 913 849 L 911 851 L 910 851 L 907 854 L 906 854 L 903 857 L 902 857 L 900 859 L 899 859 L 896 862 L 895 862 L 892 865 L 891 865 L 889 867 L 888 867 L 885 870 L 884 870 L 881 873 L 880 873 L 878 875 L 877 875 L 874 878 L 873 878 L 870 881 L 869 881 L 867 883 L 866 883 L 863 886 L 862 886 L 859 889 L 858 889 L 856 891 L 855 891 L 852 894 L 851 894 L 848 897 L 847 897 L 845 899 L 844 899 L 843 898 L 843 897 L 844 896 L 844 894 L 845 893 L 845 891 L 846 890 L 846 888 L 847 887 L 847 885 L 848 884 L 848 882 L 849 881 L 849 879 L 850 878 L 850 876 L 851 875 L 851 873 L 852 872 L 852 870 L 853 869 L 853 867 L 854 866 L 854 864 L 855 863 L 855 861 L 856 860 L 856 858 L 857 857 L 857 855 L 858 854 L 858 851 L 859 850 L 859 848 L 860 847 L 860 845 L 861 844 L 861 842 L 862 841 L 862 839 L 863 838 L 863 836 L 864 835 L 864 833 L 865 832 L 865 830 L 866 829 L 866 827 L 867 826 L 867 824 L 868 823 L 868 821 L 869 820 L 869 818 L 870 817 L 870 815 L 871 814 L 871 812 L 872 811 L 872 809 L 873 808 L 873 805 L 874 804 L 874 802 L 875 801 L 875 799 L 876 798 L 876 796 L 877 795 L 877 793 L 878 792 L 878 790 L 879 789 L 879 787 L 880 786 L 880 784 L 881 783 L 881 781 L 882 780 L 882 778 L 883 777 L 883 775 L 884 774 L 884 772 L 885 771 L 885 769 L 886 768 L 886 766 L 887 765 L 887 763 L 888 762 L 888 759 L 889 758 L 889 756 L 890 755 L 890 753 L 891 752 L 891 750 L 892 749 L 892 747 L 893 746 L 893 744 L 894 743 L 894 741 L 895 740 L 895 738 L 896 737 L 896 734 L 500 734 L 499 733 L 505 727 L 506 727 L 509 724 L 510 724 L 512 722 L 513 722 L 515 720 L 516 720 L 517 719 L 518 719 L 520 717 L 521 717 L 522 716 L 523 716 L 524 715 L 525 715 L 526 714 L 527 714 L 528 713 L 530 713 L 531 712 L 532 712 L 533 711 L 535 711 L 536 710 L 538 710 L 539 709 L 540 709 L 541 708 L 543 708 L 544 707 L 547 707 L 548 706 L 550 706 L 551 705 L 554 705 L 555 704 L 558 704 L 559 703 L 562 703 L 563 702 L 566 702 L 567 701 L 571 701 L 572 700 L 576 700 L 577 699 L 581 699 L 582 698 L 587 698 L 588 697 L 592 697 L 593 696 L 598 696 L 599 695 L 604 695 L 605 694 L 609 694 L 610 693 L 615 693 L 616 692 L 621 692 L 622 691 L 627 691 L 628 690 L 632 690 L 633 689 L 638 689 L 639 688 L 644 688 L 645 687 L 649 687 L 650 686 L 655 686 L 656 685 L 661 685 L 662 684 L 667 684 L 668 683 L 672 683 L 673 682 L 678 682 L 679 681 L 684 681 L 685 680 L 689 680 L 690 679 L 695 679 L 696 678 L 701 678 L 702 677 L 707 677 L 708 676 L 712 676 L 713 675 L 718 675 L 719 674 L 724 674 L 725 673 L 729 673 L 730 672 L 735 672 L 736 671 L 741 671 L 742 670 L 746 670 L 747 669 L 752 669 L 753 668 L 758 668 L 759 667 L 764 667 L 765 666 L 769 666 L 770 665 L 774 665 L 775 664 L 779 664 L 780 663 L 783 663 L 784 662 L 788 662 L 789 661 L 792 661 L 793 660 L 797 660 L 798 659 L 801 659 L 802 658 L 805 658 L 806 657 L 809 657 L 810 656 L 812 656 L 813 655 L 816 655 L 817 654 L 819 654 L 820 653 L 822 653 L 823 652 L 825 652 L 826 651 L 828 651 L 829 650 L 831 650 L 832 649 L 834 649 L 835 648 L 837 648 L 838 647 L 840 647 L 841 646 L 842 646 L 843 645 L 845 645 L 846 644 L 848 644 L 849 643 L 850 643 L 851 642 L 853 642 L 854 641 L 855 641 L 856 640 L 858 640 L 859 639 L 860 639 L 861 638 L 862 638 L 863 637 L 864 637 L 865 636 L 866 636 L 867 635 L 868 635 L 869 634 L 871 634 L 872 633 L 873 633 L 874 632 L 875 632 L 876 631 L 877 631 L 878 630 L 879 630 L 880 629 L 881 629 L 883 627 L 884 627 L 885 626 L 886 626 L 887 625 L 888 625 L 889 624 L 890 624 L 892 622 L 893 622 L 894 621 L 895 621 L 897 619 L 898 619 L 899 618 L 900 618 L 902 616 L 903 616 L 905 614 L 906 614 L 909 611 L 910 611 L 912 609 L 913 609 L 916 606 L 917 606 L 921 602 L 922 602 L 927 597 L 928 597 L 940 585 L 940 584 L 947 577 L 947 576 L 951 572 L 951 571 L 953 569 L 953 568 L 955 566 L 955 565 L 957 563 L 957 562 L 959 560 L 959 559 L 960 558 L 960 557 L 962 555 L 962 554 L 963 553 L 963 552 L 964 551 L 964 550 L 965 549 L 965 548 L 966 547 L 966 546 L 967 545 L 967 544 L 968 543 L 968 542 L 969 541 L 969 539 L 970 538 L 970 537 L 971 536 L 971 534 L 972 533 L 972 531 L 973 530 L 973 529 L 974 528 L 974 525 L 975 524 L 975 522 L 976 521 L 976 518 L 977 517 L 977 514 L 978 513 L 978 510 L 979 509 L 979 505 L 980 504 L 980 498 L 981 497 L 981 474 L 980 473 L 980 467 L 979 466 L 979 462 L 978 461 L 978 458 L 977 457 L 977 455 L 976 454 L 976 452 L 975 451 L 975 450 L 974 449 L 974 448 L 973 447 L 973 445 L 972 444 L 972 443 L 970 441 L 970 440 L 969 439 L 969 438 L 967 436 L 967 435 L 965 433 L 965 432 L 961 428 L 961 427 L 953 419 L 952 419 L 947 414 L 946 414 L 944 412 L 943 412 L 940 409 L 939 409 L 937 407 L 936 407 L 935 406 L 934 406 L 933 405 L 932 405 L 930 403 L 929 403 L 928 402 L 927 402 L 926 401 L 925 401 L 924 400 L 923 400 L 922 399 L 921 399 L 920 398 L 918 398 L 917 397 L 916 397 L 915 396 L 914 396 L 913 395 L 912 395 L 911 394 L 909 394 L 908 393 L 906 393 L 905 392 L 903 392 L 902 391 L 900 391 L 899 390 L 897 390 L 896 389 L 894 389 L 893 388 L 891 388 L 890 387 L 887 387 L 886 386 L 884 386 L 883 385 L 880 385 L 879 384 L 877 384 L 876 383 L 872 383 L 871 382 L 868 382 L 867 381 L 863 381 L 862 380 L 858 380 L 857 379 L 853 379 L 852 378 L 846 378 L 845 377 L 840 377 L 839 376 L 832 376 L 831 375 L 824 375 L 823 374 L 815 374 L 814 373 L 804 373 L 803 372 L 790 372 L 789 371 L 774 371 L 773 370 L 747 370 L 746 369 L 696 369 L 695 370 L 675 370 L 674 371 L 658 371 L 657 372 L 647 372 L 646 373 L 638 373 L 637 374 L 630 374 L 629 375 L 623 375 L 622 376 L 616 376 L 615 377 L 609 377 L 608 378 L 603 378 L 602 379 L 598 379 L 597 380 L 593 380 L 592 381 L 589 381 L 588 382 L 584 382 L 583 383 L 580 383 L 579 384 L 575 384 L 574 385 L 571 385 L 570 386 L 567 386 L 566 387 L 563 387 L 562 388 L 560 388 L 559 389 L 557 389 L 556 390 L 553 390 L 552 391 L 550 391 L 549 392 L 547 392 L 546 393 L 544 393 L 543 394 L 541 394 L 540 395 L 538 395 L 537 396 L 535 396 L 534 397 L 532 397 L 531 398 L 530 398 L 529 399 L 527 399 L 526 400 L 525 400 L 524 401 L 522 401 L 521 402 L 520 402 L 519 403 L 518 403 L 517 404 L 515 404 L 514 405 L 513 405 L 512 406 L 511 406 L 510 407 L 509 407 L 508 408 L 507 408 L 506 409 L 505 409 L 504 410 L 503 410 L 502 411 L 501 411 L 500 412 L 498 412 L 497 413 L 496 413 L 495 414 L 494 414 L 492 416 L 491 416 L 490 417 L 489 417 L 488 418 L 487 418 L 486 419 L 485 419 L 483 421 L 482 421 L 481 422 L 480 422 L 479 423 L 478 423 L 476 425 L 475 425 L 473 427 L 472 427 L 470 429 L 469 429 L 467 431 L 466 431 L 464 433 L 463 433 L 461 435 L 460 435 L 457 438 L 456 438 L 453 441 L 452 441 L 447 446 L 446 446 L 441 451 L 440 451 Z" fill="none" stroke="black" stroke-width="1"/>
</svg>