<svg xmlns="http://www.w3.org/2000/svg" viewBox="0 0 859 743">
    <path d="M 852 7 L 851 8 L 850 8 L 849 9 L 848 9 L 847 10 L 846 10 L 845 11 L 844 11 L 843 12 L 842 12 L 841 13 L 840 13 L 839 14 L 838 14 L 837 15 L 836 15 L 835 16 L 834 16 L 833 17 L 832 17 L 831 18 L 830 18 L 829 19 L 827 19 L 825 21 L 824 21 L 823 22 L 821 22 L 820 23 L 819 23 L 818 24 L 817 24 L 816 25 L 815 25 L 814 26 L 813 26 L 812 27 L 811 27 L 810 28 L 809 28 L 808 29 L 807 29 L 806 30 L 805 30 L 804 31 L 803 31 L 802 32 L 801 32 L 800 33 L 799 33 L 798 34 L 797 34 L 796 35 L 795 35 L 794 36 L 793 36 L 792 37 L 791 37 L 790 38 L 789 38 L 788 39 L 787 39 L 786 40 L 785 40 L 784 41 L 783 41 L 782 42 L 780 42 L 779 43 L 778 43 L 777 44 L 776 44 L 775 45 L 774 45 L 773 46 L 772 46 L 771 47 L 770 47 L 769 48 L 768 48 L 767 49 L 766 49 L 765 50 L 764 50 L 763 51 L 762 51 L 761 52 L 760 52 L 759 53 L 758 53 L 757 54 L 756 54 L 755 55 L 754 55 L 753 56 L 752 56 L 751 57 L 750 57 L 749 58 L 748 58 L 747 59 L 746 59 L 745 60 L 744 60 L 743 61 L 741 61 L 740 62 L 739 62 L 738 63 L 737 63 L 736 64 L 735 64 L 734 65 L 733 65 L 732 66 L 731 66 L 730 67 L 729 67 L 728 68 L 727 68 L 726 69 L 725 69 L 724 70 L 723 70 L 722 71 L 721 71 L 720 72 L 719 72 L 718 73 L 717 73 L 716 74 L 715 74 L 714 75 L 713 75 L 712 76 L 711 76 L 710 77 L 709 77 L 708 78 L 707 78 L 706 79 L 705 79 L 704 80 L 703 80 L 702 81 L 701 81 L 700 82 L 699 82 L 698 83 L 697 83 L 696 84 L 694 84 L 693 85 L 692 85 L 691 86 L 690 86 L 689 87 L 688 87 L 687 88 L 686 88 L 685 89 L 684 89 L 683 90 L 682 90 L 681 91 L 680 91 L 679 92 L 678 92 L 677 93 L 676 93 L 675 94 L 674 94 L 673 95 L 672 95 L 671 96 L 670 96 L 669 97 L 668 97 L 667 98 L 666 98 L 665 99 L 664 99 L 663 100 L 662 100 L 661 101 L 660 101 L 659 102 L 658 102 L 657 103 L 655 103 L 654 104 L 653 104 L 652 105 L 651 105 L 650 106 L 649 106 L 648 107 L 647 107 L 646 108 L 645 108 L 644 109 L 643 109 L 642 110 L 641 110 L 640 111 L 638 109 L 638 108 L 628 98 L 628 97 L 617 86 L 616 86 L 607 77 L 606 77 L 601 72 L 600 72 L 596 68 L 595 68 L 592 65 L 591 65 L 588 62 L 587 62 L 584 59 L 583 59 L 581 57 L 580 57 L 578 55 L 577 55 L 575 53 L 574 53 L 572 51 L 571 51 L 570 50 L 569 50 L 567 48 L 566 48 L 564 46 L 563 46 L 562 45 L 561 45 L 560 44 L 559 44 L 557 42 L 556 42 L 555 41 L 554 41 L 553 40 L 552 40 L 551 39 L 550 39 L 549 38 L 548 38 L 546 36 L 545 36 L 544 35 L 543 35 L 542 34 L 541 34 L 540 33 L 538 33 L 537 32 L 536 32 L 535 31 L 534 31 L 533 30 L 532 30 L 531 29 L 530 29 L 529 28 L 527 28 L 526 27 L 525 27 L 524 26 L 522 26 L 521 25 L 520 25 L 519 24 L 517 24 L 516 23 L 515 23 L 514 22 L 512 22 L 511 21 L 509 21 L 508 20 L 506 20 L 505 19 L 503 19 L 502 18 L 500 18 L 499 17 L 497 17 L 496 16 L 494 16 L 493 15 L 490 15 L 489 14 L 486 14 L 485 13 L 483 13 L 482 12 L 479 12 L 478 11 L 475 11 L 474 10 L 472 10 L 473 10 L 474 11 L 476 11 L 477 12 L 479 12 L 480 13 L 481 13 L 482 14 L 484 14 L 485 15 L 486 15 L 487 16 L 489 16 L 490 17 L 491 17 L 492 18 L 493 18 L 494 19 L 495 19 L 496 20 L 497 20 L 498 21 L 499 21 L 500 22 L 502 22 L 503 23 L 504 23 L 506 25 L 507 25 L 508 26 L 509 26 L 510 27 L 511 27 L 512 28 L 513 28 L 514 29 L 515 29 L 517 31 L 518 31 L 519 32 L 520 32 L 522 34 L 523 34 L 525 36 L 526 36 L 527 37 L 528 37 L 530 39 L 531 39 L 534 42 L 535 42 L 537 44 L 538 44 L 541 47 L 542 47 L 545 50 L 546 50 L 550 54 L 551 54 L 558 61 L 559 61 L 577 79 L 577 80 L 584 87 L 584 88 L 589 93 L 589 94 L 592 97 L 592 98 L 595 101 L 595 102 L 597 104 L 597 105 L 600 108 L 600 109 L 602 111 L 602 112 L 603 113 L 603 114 L 605 116 L 605 117 L 607 119 L 607 120 L 608 121 L 608 122 L 610 124 L 610 125 L 609 126 L 608 126 L 607 127 L 606 127 L 605 128 L 604 128 L 603 129 L 602 129 L 601 130 L 600 130 L 599 131 L 598 131 L 597 132 L 596 132 L 595 133 L 594 133 L 593 134 L 592 134 L 591 135 L 590 135 L 589 136 L 588 136 L 587 137 L 586 137 L 585 138 L 584 138 L 583 139 L 582 139 L 581 140 L 580 140 L 579 141 L 578 141 L 577 142 L 576 142 L 575 143 L 574 143 L 573 144 L 572 144 L 571 145 L 569 145 L 568 146 L 567 146 L 566 147 L 565 147 L 564 148 L 563 148 L 562 149 L 561 149 L 560 150 L 559 150 L 558 151 L 557 151 L 556 152 L 555 152 L 554 153 L 553 153 L 552 154 L 551 154 L 550 155 L 549 155 L 548 156 L 547 156 L 546 157 L 545 157 L 544 158 L 543 158 L 542 159 L 541 159 L 540 160 L 539 160 L 538 161 L 537 161 L 536 162 L 535 162 L 534 163 L 533 163 L 532 164 L 531 164 L 530 165 L 528 165 L 527 166 L 526 166 L 525 167 L 524 167 L 523 168 L 522 168 L 521 169 L 519 169 L 518 168 L 516 168 L 515 167 L 513 167 L 512 166 L 510 166 L 509 165 L 507 165 L 506 164 L 504 164 L 503 163 L 501 163 L 500 162 L 498 162 L 497 161 L 495 161 L 494 160 L 492 160 L 491 159 L 490 159 L 490 160 L 492 162 L 492 163 L 494 165 L 494 166 L 496 168 L 496 169 L 498 171 L 498 172 L 500 174 L 500 175 L 502 177 L 502 178 L 504 180 L 504 181 L 505 182 L 505 183 L 507 185 L 507 186 L 509 188 L 509 189 L 511 191 L 511 192 L 513 194 L 513 195 L 515 197 L 515 198 L 517 200 L 517 201 L 519 203 L 519 204 L 521 206 L 521 207 L 523 209 L 523 210 L 525 212 L 525 213 L 527 215 L 527 216 L 528 217 L 528 218 L 530 220 L 530 221 L 532 223 L 532 224 L 534 226 L 534 227 L 536 229 L 536 230 L 538 232 L 538 233 L 540 235 L 540 236 L 542 238 L 542 239 L 544 241 L 544 242 L 546 244 L 546 245 L 548 247 L 548 248 L 549 249 L 549 246 L 548 245 L 548 238 L 547 237 L 547 229 L 546 228 L 546 221 L 545 220 L 545 212 L 544 211 L 544 206 L 547 203 L 548 203 L 549 202 L 550 202 L 552 200 L 553 200 L 555 198 L 556 198 L 558 196 L 559 196 L 560 195 L 561 195 L 563 193 L 564 193 L 566 191 L 567 191 L 569 189 L 570 189 L 572 187 L 573 187 L 575 185 L 576 185 L 577 184 L 578 184 L 580 182 L 581 182 L 583 180 L 584 180 L 586 178 L 587 178 L 589 176 L 590 176 L 591 175 L 592 175 L 594 173 L 595 173 L 597 171 L 598 171 L 600 169 L 601 169 L 603 167 L 604 167 L 606 165 L 607 165 L 608 164 L 609 164 L 611 162 L 612 162 L 614 160 L 615 160 L 617 158 L 618 158 L 619 157 L 620 157 L 622 155 L 623 155 L 624 154 L 625 155 L 625 156 L 626 157 L 626 159 L 627 160 L 627 162 L 628 163 L 628 164 L 629 165 L 629 167 L 630 168 L 630 170 L 631 171 L 631 173 L 632 174 L 632 177 L 633 178 L 633 180 L 634 181 L 634 184 L 635 185 L 635 187 L 636 188 L 636 191 L 637 192 L 637 196 L 638 197 L 638 201 L 639 202 L 639 206 L 640 207 L 640 212 L 641 213 L 641 219 L 642 220 L 642 229 L 643 230 L 643 272 L 642 273 L 642 281 L 641 282 L 641 289 L 640 290 L 640 295 L 639 296 L 639 300 L 638 301 L 638 305 L 637 306 L 637 309 L 636 310 L 636 313 L 635 314 L 635 317 L 634 318 L 634 321 L 633 322 L 633 324 L 632 325 L 632 327 L 631 328 L 631 331 L 630 332 L 630 333 L 629 334 L 629 336 L 628 337 L 628 339 L 627 340 L 627 342 L 626 343 L 626 344 L 625 345 L 625 347 L 624 348 L 624 349 L 623 350 L 623 352 L 622 353 L 622 354 L 621 355 L 621 356 L 620 357 L 620 358 L 619 359 L 619 360 L 618 361 L 618 362 L 617 363 L 617 364 L 616 365 L 616 366 L 615 367 L 615 368 L 614 369 L 614 370 L 613 371 L 613 372 L 612 373 L 612 374 L 611 375 L 611 376 L 609 378 L 609 379 L 608 380 L 608 381 L 606 383 L 606 384 L 605 385 L 605 386 L 603 388 L 603 389 L 601 391 L 601 392 L 599 394 L 599 395 L 597 397 L 597 398 L 594 401 L 594 402 L 591 405 L 591 406 L 588 409 L 588 410 L 583 415 L 583 416 L 580 419 L 579 418 L 579 417 L 577 415 L 577 414 L 575 412 L 575 411 L 573 409 L 573 408 L 571 406 L 571 405 L 569 403 L 569 402 L 567 400 L 567 399 L 564 396 L 564 395 L 562 393 L 562 392 L 560 390 L 560 389 L 558 387 L 558 386 L 556 384 L 556 383 L 554 381 L 554 380 L 553 379 L 553 378 L 554 377 L 554 376 L 555 375 L 555 374 L 556 373 L 556 372 L 557 371 L 557 370 L 558 369 L 558 368 L 559 367 L 559 366 L 560 365 L 560 364 L 561 363 L 561 362 L 562 361 L 562 360 L 563 359 L 563 358 L 564 357 L 564 356 L 565 355 L 565 354 L 566 353 L 566 352 L 567 351 L 567 349 L 568 348 L 568 347 L 569 346 L 569 345 L 570 344 L 569 345 L 568 345 L 567 346 L 566 346 L 564 348 L 563 348 L 562 349 L 561 349 L 559 351 L 558 351 L 557 352 L 556 352 L 554 354 L 553 354 L 552 355 L 551 355 L 549 357 L 548 357 L 547 358 L 546 358 L 544 360 L 543 360 L 542 361 L 541 361 L 539 363 L 538 363 L 537 364 L 536 364 L 535 365 L 534 365 L 532 367 L 531 367 L 530 368 L 529 368 L 527 370 L 526 370 L 525 371 L 524 371 L 522 373 L 521 373 L 520 374 L 519 374 L 517 376 L 516 376 L 515 377 L 514 377 L 512 379 L 511 379 L 510 380 L 509 380 L 508 381 L 507 381 L 505 383 L 504 383 L 502 385 L 501 385 L 500 386 L 499 386 L 498 387 L 497 387 L 495 389 L 494 389 L 493 390 L 492 390 L 490 392 L 489 392 L 488 393 L 487 393 L 489 393 L 490 394 L 497 394 L 498 395 L 504 395 L 505 396 L 511 396 L 512 397 L 515 397 L 519 401 L 519 402 L 525 408 L 525 409 L 530 414 L 530 415 L 536 421 L 536 422 L 542 428 L 542 429 L 547 434 L 547 435 L 553 441 L 553 442 L 555 444 L 553 446 L 552 446 L 548 450 L 547 450 L 543 454 L 542 454 L 539 457 L 538 457 L 536 459 L 535 459 L 532 462 L 531 462 L 529 464 L 528 464 L 526 466 L 525 466 L 524 467 L 523 467 L 521 469 L 520 469 L 518 471 L 517 471 L 516 472 L 515 472 L 514 473 L 513 473 L 511 475 L 510 475 L 509 476 L 508 476 L 507 477 L 506 477 L 505 478 L 504 478 L 503 479 L 502 479 L 501 480 L 500 480 L 499 481 L 498 481 L 497 482 L 496 482 L 495 483 L 494 483 L 493 484 L 491 484 L 490 485 L 489 485 L 488 486 L 487 486 L 486 487 L 484 487 L 483 488 L 482 488 L 481 489 L 479 489 L 478 490 L 476 490 L 475 491 L 474 491 L 473 492 L 471 492 L 470 493 L 468 493 L 467 494 L 465 494 L 464 495 L 462 495 L 461 496 L 458 496 L 457 497 L 454 497 L 453 498 L 451 498 L 450 499 L 446 499 L 445 500 L 442 500 L 441 501 L 437 501 L 436 502 L 431 502 L 430 503 L 425 503 L 424 504 L 417 504 L 416 505 L 406 505 L 405 506 L 373 506 L 371 504 L 371 503 L 372 502 L 372 497 L 373 496 L 373 490 L 374 489 L 374 483 L 375 482 L 375 477 L 376 476 L 376 471 L 377 470 L 377 464 L 378 463 L 378 458 L 381 455 L 382 455 L 383 454 L 384 454 L 386 452 L 387 452 L 388 451 L 389 451 L 391 449 L 392 449 L 393 448 L 394 448 L 396 446 L 397 446 L 398 445 L 399 445 L 400 444 L 399 443 L 397 443 L 396 442 L 393 442 L 392 441 L 390 441 L 389 440 L 387 440 L 386 439 L 384 439 L 383 438 L 381 438 L 380 437 L 377 437 L 376 436 L 374 436 L 373 435 L 371 435 L 370 434 L 368 434 L 367 433 L 365 433 L 364 432 L 361 432 L 360 431 L 358 431 L 357 430 L 355 430 L 354 429 L 352 429 L 351 428 L 349 428 L 348 427 L 345 427 L 344 426 L 342 426 L 341 425 L 339 425 L 338 424 L 336 424 L 335 423 L 332 423 L 331 422 L 329 422 L 328 421 L 326 421 L 325 420 L 323 420 L 322 419 L 320 419 L 319 418 L 318 418 L 318 419 L 322 423 L 322 424 L 325 427 L 325 428 L 328 431 L 328 432 L 331 435 L 331 436 L 333 438 L 333 479 L 334 480 L 334 499 L 333 500 L 331 500 L 330 499 L 327 499 L 326 498 L 323 498 L 322 497 L 320 497 L 319 496 L 316 496 L 315 495 L 313 495 L 312 494 L 310 494 L 309 493 L 307 493 L 306 492 L 304 492 L 303 491 L 301 491 L 300 490 L 298 490 L 297 489 L 296 489 L 295 488 L 293 488 L 292 487 L 291 487 L 290 486 L 288 486 L 287 485 L 286 485 L 285 484 L 284 484 L 283 483 L 282 483 L 281 482 L 280 482 L 279 481 L 277 481 L 276 480 L 275 480 L 274 479 L 273 479 L 271 477 L 270 477 L 269 476 L 268 476 L 267 475 L 266 475 L 265 474 L 264 474 L 263 473 L 262 473 L 260 471 L 259 471 L 258 470 L 257 470 L 255 468 L 254 468 L 253 467 L 252 467 L 250 465 L 249 465 L 247 463 L 246 463 L 244 461 L 243 461 L 240 458 L 239 458 L 237 456 L 236 456 L 232 452 L 231 452 L 227 448 L 226 448 L 220 442 L 219 442 L 197 420 L 197 419 L 191 413 L 191 412 L 188 409 L 188 408 L 192 404 L 193 404 L 196 401 L 197 401 L 199 399 L 200 399 L 203 396 L 204 396 L 207 393 L 208 393 L 210 391 L 211 391 L 214 388 L 215 388 L 218 385 L 219 385 L 222 382 L 223 382 L 225 380 L 226 380 L 229 377 L 230 377 L 233 374 L 234 374 L 236 372 L 237 372 L 240 369 L 241 369 L 244 366 L 245 366 L 247 364 L 248 364 L 251 361 L 252 361 L 255 358 L 256 358 L 258 356 L 259 356 L 262 353 L 263 353 L 266 350 L 267 350 L 269 348 L 270 348 L 273 345 L 274 345 L 277 342 L 278 342 L 281 339 L 282 339 L 284 337 L 285 337 L 288 334 L 289 334 L 292 331 L 293 331 L 295 329 L 296 329 L 299 326 L 300 326 L 303 323 L 304 323 L 306 321 L 307 321 L 310 318 L 311 318 L 314 315 L 315 315 L 317 313 L 318 313 L 321 310 L 322 310 L 325 307 L 326 307 L 329 304 L 330 304 L 332 302 L 333 302 L 336 299 L 337 299 L 340 296 L 341 296 L 343 294 L 344 294 L 347 291 L 348 291 L 351 288 L 352 288 L 354 286 L 355 286 L 358 283 L 359 283 L 362 280 L 363 280 L 365 278 L 366 278 L 369 275 L 370 275 L 373 272 L 374 272 L 377 269 L 378 269 L 380 267 L 381 267 L 384 264 L 385 264 L 388 261 L 389 261 L 391 259 L 392 259 L 393 258 L 392 258 L 391 259 L 390 259 L 388 261 L 387 261 L 386 262 L 385 262 L 384 263 L 383 263 L 382 264 L 381 264 L 380 265 L 379 265 L 378 266 L 377 266 L 376 267 L 375 267 L 374 268 L 373 268 L 372 269 L 371 269 L 370 270 L 369 270 L 368 271 L 367 271 L 366 272 L 365 272 L 364 273 L 363 273 L 362 274 L 361 274 L 360 275 L 359 275 L 358 276 L 357 276 L 356 277 L 355 277 L 354 278 L 353 278 L 352 279 L 351 279 L 350 280 L 349 280 L 348 281 L 347 281 L 346 282 L 345 282 L 344 283 L 343 283 L 342 284 L 341 284 L 340 285 L 339 285 L 338 286 L 337 286 L 336 287 L 335 287 L 334 288 L 333 288 L 332 289 L 331 289 L 330 290 L 329 290 L 328 291 L 327 291 L 326 292 L 325 292 L 324 293 L 323 293 L 322 294 L 321 294 L 320 295 L 319 295 L 318 296 L 317 296 L 316 297 L 315 297 L 314 298 L 313 298 L 312 299 L 311 299 L 310 300 L 309 300 L 308 301 L 307 301 L 306 302 L 305 302 L 304 303 L 303 303 L 302 304 L 301 304 L 300 305 L 299 305 L 298 306 L 297 306 L 296 307 L 295 307 L 294 308 L 293 308 L 292 309 L 291 309 L 290 310 L 289 310 L 288 311 L 287 311 L 286 312 L 285 312 L 284 313 L 283 313 L 282 314 L 281 314 L 280 315 L 279 315 L 278 316 L 277 316 L 276 317 L 275 317 L 274 318 L 273 318 L 272 319 L 271 319 L 270 320 L 269 320 L 268 321 L 267 321 L 266 322 L 265 322 L 264 323 L 263 323 L 262 324 L 261 324 L 260 325 L 259 325 L 258 326 L 257 326 L 256 327 L 255 327 L 254 328 L 253 328 L 252 329 L 251 329 L 250 330 L 249 330 L 248 331 L 247 331 L 246 332 L 245 332 L 244 333 L 243 333 L 242 334 L 241 334 L 240 335 L 239 335 L 238 336 L 237 336 L 236 337 L 235 337 L 234 338 L 233 338 L 232 339 L 231 339 L 230 340 L 229 340 L 228 341 L 227 341 L 226 342 L 225 342 L 224 343 L 223 343 L 222 344 L 221 344 L 220 345 L 219 345 L 218 346 L 217 346 L 216 347 L 215 347 L 214 348 L 213 348 L 212 349 L 211 349 L 210 350 L 209 350 L 208 351 L 207 351 L 206 352 L 205 352 L 204 353 L 203 353 L 202 354 L 201 354 L 200 355 L 199 355 L 198 356 L 197 356 L 196 357 L 195 357 L 194 358 L 193 358 L 192 359 L 191 359 L 190 360 L 189 360 L 188 361 L 187 361 L 186 362 L 185 362 L 184 363 L 183 363 L 182 364 L 181 364 L 180 365 L 179 365 L 178 366 L 177 366 L 176 367 L 175 367 L 174 368 L 173 368 L 172 369 L 171 369 L 170 370 L 169 370 L 168 371 L 167 371 L 166 372 L 164 372 L 163 371 L 163 370 L 162 369 L 162 368 L 161 367 L 161 366 L 160 365 L 160 364 L 159 363 L 159 362 L 158 361 L 158 360 L 157 359 L 157 358 L 156 357 L 156 356 L 155 355 L 155 354 L 154 353 L 154 351 L 153 350 L 153 349 L 152 348 L 152 347 L 151 346 L 151 344 L 150 343 L 150 341 L 149 340 L 149 339 L 148 338 L 148 336 L 147 335 L 147 333 L 146 332 L 146 330 L 145 329 L 145 327 L 144 326 L 144 324 L 143 323 L 143 320 L 142 319 L 142 316 L 141 315 L 141 313 L 140 312 L 140 308 L 139 307 L 139 304 L 138 303 L 138 299 L 137 298 L 137 293 L 136 292 L 136 286 L 135 285 L 135 278 L 134 277 L 134 265 L 133 264 L 133 238 L 134 237 L 134 224 L 135 223 L 135 217 L 136 216 L 136 210 L 137 209 L 137 204 L 138 203 L 138 199 L 139 198 L 139 194 L 140 193 L 140 190 L 141 189 L 141 186 L 142 185 L 142 183 L 143 182 L 143 179 L 144 178 L 144 176 L 145 175 L 145 173 L 146 172 L 146 170 L 147 169 L 147 167 L 148 166 L 148 164 L 149 163 L 149 161 L 150 160 L 150 159 L 151 158 L 151 156 L 152 155 L 152 154 L 153 153 L 153 151 L 154 150 L 154 149 L 155 148 L 155 147 L 156 146 L 156 145 L 157 144 L 157 142 L 158 141 L 158 140 L 159 139 L 159 138 L 160 137 L 160 136 L 161 135 L 161 134 L 162 133 L 162 132 L 163 131 L 163 130 L 165 128 L 165 127 L 166 126 L 166 125 L 167 124 L 167 123 L 169 121 L 169 120 L 170 119 L 170 118 L 172 116 L 172 115 L 174 113 L 174 112 L 241 72 L 243 74 L 243 75 L 245 77 L 245 78 L 254 87 L 255 87 L 257 89 L 258 89 L 260 91 L 261 91 L 262 92 L 263 92 L 264 93 L 266 93 L 267 94 L 268 94 L 269 95 L 272 95 L 273 96 L 278 96 L 279 97 L 289 97 L 290 96 L 295 96 L 296 95 L 298 95 L 299 94 L 301 94 L 302 93 L 303 93 L 304 92 L 305 92 L 306 91 L 307 91 L 308 90 L 309 90 L 310 89 L 311 89 L 314 86 L 315 86 L 321 80 L 321 79 L 324 76 L 324 75 L 326 73 L 326 72 L 327 71 L 327 70 L 328 69 L 328 68 L 329 67 L 329 65 L 330 64 L 330 62 L 331 61 L 331 57 L 332 56 L 332 41 L 331 40 L 331 36 L 330 35 L 330 33 L 329 32 L 329 30 L 328 29 L 328 28 L 327 27 L 327 26 L 326 25 L 326 24 L 324 22 L 324 21 L 322 19 L 322 18 L 314 10 L 313 10 L 311 8 L 310 8 L 308 6 L 307 6 L 306 5 L 305 5 L 304 4 L 302 4 L 301 3 L 300 3 L 299 2 L 296 2 L 295 1 L 291 1 L 290 0 L 278 0 L 277 1 L 272 1 L 271 2 L 269 2 L 268 3 L 266 3 L 265 4 L 264 4 L 263 5 L 262 5 L 261 6 L 260 6 L 259 7 L 258 7 L 256 9 L 255 9 L 244 20 L 244 21 L 242 23 L 242 24 L 241 25 L 241 26 L 240 27 L 240 28 L 239 29 L 239 31 L 238 32 L 238 34 L 237 35 L 237 37 L 236 38 L 236 45 L 235 46 L 235 51 L 236 52 L 236 59 L 237 60 L 237 62 L 238 63 L 238 65 L 239 66 L 239 68 L 240 69 L 240 70 L 241 71 L 241 72 L 174 112 L 174 113 L 169 118 L 169 119 L 166 122 L 166 123 L 163 126 L 163 127 L 160 130 L 160 131 L 158 133 L 158 134 L 156 136 L 156 137 L 153 140 L 153 141 L 152 142 L 152 143 L 150 145 L 150 146 L 148 148 L 148 149 L 147 150 L 147 151 L 145 153 L 145 154 L 144 155 L 144 156 L 143 157 L 143 158 L 141 160 L 141 161 L 140 162 L 140 163 L 139 164 L 139 165 L 138 166 L 138 167 L 137 168 L 137 169 L 136 170 L 136 171 L 134 173 L 134 174 L 133 175 L 133 177 L 132 178 L 132 179 L 131 180 L 131 181 L 130 182 L 130 183 L 129 184 L 129 185 L 128 186 L 128 188 L 127 189 L 127 190 L 126 191 L 126 192 L 125 193 L 125 195 L 124 196 L 124 197 L 123 198 L 123 200 L 122 201 L 122 203 L 121 204 L 121 205 L 120 206 L 120 208 L 119 209 L 119 211 L 118 212 L 118 214 L 117 215 L 117 218 L 116 219 L 116 221 L 115 222 L 115 224 L 114 225 L 114 228 L 113 229 L 113 232 L 112 233 L 112 236 L 111 237 L 111 240 L 110 241 L 110 245 L 109 246 L 109 249 L 108 250 L 108 255 L 107 256 L 107 261 L 106 262 L 106 268 L 105 269 L 105 277 L 104 278 L 104 289 L 103 290 L 103 327 L 104 328 L 104 339 L 105 340 L 105 347 L 106 348 L 106 355 L 107 356 L 107 360 L 108 361 L 108 366 L 109 367 L 109 371 L 110 372 L 110 375 L 111 376 L 111 380 L 112 381 L 112 384 L 113 385 L 113 387 L 114 388 L 114 391 L 115 392 L 115 394 L 116 395 L 116 396 L 114 398 L 113 398 L 112 399 L 111 399 L 110 400 L 109 400 L 108 401 L 107 401 L 106 402 L 105 402 L 104 403 L 103 403 L 102 404 L 101 404 L 100 405 L 99 405 L 98 406 L 97 406 L 96 407 L 95 407 L 94 408 L 93 408 L 92 409 L 90 409 L 88 411 L 87 411 L 86 412 L 85 412 L 84 413 L 83 413 L 82 414 L 81 414 L 80 415 L 79 415 L 78 416 L 77 416 L 76 417 L 75 417 L 74 418 L 73 418 L 72 419 L 71 419 L 70 420 L 69 420 L 68 421 L 67 421 L 66 422 L 65 422 L 64 423 L 63 423 L 62 424 L 61 424 L 60 425 L 59 425 L 58 426 L 57 426 L 56 427 L 55 427 L 54 428 L 53 428 L 52 429 L 51 429 L 50 430 L 49 430 L 48 431 L 47 431 L 46 432 L 44 432 L 42 434 L 41 434 L 40 435 L 38 435 L 36 437 L 35 437 L 34 438 L 32 438 L 30 440 L 28 440 L 27 439 L 26 439 L 25 438 L 24 438 L 23 437 L 22 437 L 21 436 L 20 436 L 19 435 L 18 435 L 17 434 L 16 434 L 15 433 L 14 433 L 13 432 L 12 432 L 11 431 L 10 431 L 9 430 L 8 430 L 7 429 L 6 429 L 5 428 L 4 428 L 3 427 L 2 427 L 1 426 L 0 426 L 2 428 L 2 429 L 3 430 L 3 431 L 4 432 L 4 433 L 5 434 L 5 435 L 7 437 L 7 438 L 8 439 L 8 440 L 9 441 L 9 442 L 10 443 L 10 444 L 12 446 L 12 447 L 13 448 L 13 449 L 14 450 L 14 451 L 15 452 L 15 453 L 16 454 L 16 455 L 18 457 L 18 458 L 19 459 L 19 460 L 20 461 L 20 462 L 21 463 L 21 464 L 23 466 L 23 467 L 24 468 L 24 469 L 25 470 L 25 471 L 27 473 L 27 474 L 28 475 L 28 476 L 29 477 L 29 478 L 30 479 L 30 480 L 31 481 L 31 482 L 33 484 L 33 485 L 34 486 L 34 487 L 35 488 L 35 489 L 36 490 L 36 491 L 38 493 L 38 494 L 39 495 L 39 496 L 40 497 L 40 498 L 42 500 L 42 501 L 43 502 L 43 503 L 44 504 L 44 505 L 45 506 L 45 507 L 47 509 L 47 510 L 48 511 L 48 512 L 49 513 L 49 514 L 50 515 L 50 516 L 52 518 L 52 519 L 53 520 L 53 521 L 54 522 L 54 523 L 55 524 L 55 525 L 56 526 L 56 527 L 58 529 L 58 530 L 59 531 L 59 532 L 60 533 L 60 534 L 61 535 L 61 536 L 63 538 L 63 539 L 64 540 L 64 541 L 65 542 L 65 543 L 65 523 L 64 522 L 64 498 L 66 496 L 67 496 L 70 493 L 71 493 L 74 490 L 75 490 L 78 487 L 79 487 L 81 485 L 82 485 L 85 482 L 86 482 L 89 479 L 90 479 L 92 477 L 93 477 L 96 474 L 97 474 L 100 471 L 101 471 L 103 469 L 104 469 L 107 466 L 108 466 L 111 463 L 112 463 L 115 460 L 116 460 L 118 458 L 119 458 L 122 455 L 123 455 L 126 452 L 127 452 L 129 450 L 130 450 L 133 447 L 134 447 L 135 446 L 137 448 L 137 449 L 138 450 L 138 451 L 140 453 L 140 454 L 141 455 L 141 456 L 142 457 L 142 458 L 143 459 L 143 460 L 145 462 L 145 463 L 146 464 L 146 465 L 148 467 L 148 468 L 149 469 L 149 470 L 151 472 L 151 473 L 153 475 L 153 476 L 155 478 L 155 479 L 157 481 L 157 482 L 160 485 L 160 486 L 162 488 L 162 489 L 165 492 L 165 493 L 169 497 L 169 498 L 173 502 L 173 503 L 179 509 L 179 510 L 206 537 L 207 537 L 213 543 L 214 543 L 218 547 L 219 547 L 222 550 L 223 550 L 226 553 L 227 553 L 230 556 L 231 556 L 233 558 L 234 558 L 236 560 L 237 560 L 239 562 L 240 562 L 242 564 L 243 564 L 245 566 L 246 566 L 248 568 L 249 568 L 250 569 L 251 569 L 253 571 L 254 571 L 255 572 L 256 572 L 257 573 L 258 573 L 260 575 L 261 575 L 262 576 L 263 576 L 264 577 L 265 577 L 266 578 L 267 578 L 268 579 L 269 579 L 270 580 L 271 580 L 272 581 L 273 581 L 274 582 L 275 582 L 276 583 L 277 583 L 278 584 L 279 584 L 280 585 L 281 585 L 282 586 L 283 586 L 284 587 L 286 587 L 287 588 L 288 588 L 289 589 L 290 589 L 291 590 L 293 590 L 294 591 L 295 591 L 296 592 L 298 592 L 299 593 L 301 593 L 302 594 L 303 594 L 304 595 L 306 595 L 307 596 L 309 596 L 310 597 L 312 597 L 313 598 L 315 598 L 316 599 L 319 599 L 320 600 L 322 600 L 323 601 L 325 601 L 326 602 L 329 602 L 330 603 L 333 603 L 335 605 L 334 606 L 335 607 L 335 714 L 336 715 L 336 739 L 336 732 L 337 731 L 337 726 L 338 725 L 338 719 L 339 718 L 339 712 L 340 711 L 340 706 L 341 705 L 341 700 L 342 699 L 342 693 L 343 692 L 343 687 L 344 686 L 344 680 L 345 679 L 345 673 L 346 672 L 346 667 L 347 666 L 347 660 L 348 659 L 348 654 L 349 653 L 349 647 L 350 646 L 350 641 L 351 640 L 351 634 L 352 633 L 352 628 L 353 627 L 353 621 L 354 620 L 354 614 L 355 613 L 355 609 L 356 608 L 357 608 L 358 609 L 364 609 L 365 610 L 372 610 L 373 611 L 382 611 L 383 612 L 400 612 L 401 613 L 414 613 L 415 612 L 432 612 L 433 611 L 443 611 L 444 610 L 450 610 L 451 609 L 457 609 L 458 608 L 463 608 L 464 607 L 468 607 L 469 606 L 472 606 L 473 605 L 477 605 L 478 604 L 481 604 L 482 603 L 485 603 L 486 602 L 489 602 L 490 601 L 492 601 L 493 600 L 496 600 L 497 599 L 499 599 L 500 598 L 502 598 L 503 597 L 505 597 L 506 596 L 508 596 L 509 595 L 511 595 L 512 594 L 513 594 L 514 593 L 516 593 L 517 592 L 519 592 L 520 591 L 521 591 L 522 590 L 524 590 L 525 589 L 526 589 L 527 588 L 528 588 L 529 587 L 531 587 L 532 586 L 533 586 L 534 585 L 535 585 L 536 584 L 537 584 L 538 583 L 539 583 L 540 582 L 541 582 L 542 581 L 543 581 L 544 580 L 545 580 L 546 579 L 547 579 L 548 578 L 549 578 L 550 577 L 551 577 L 552 576 L 553 576 L 554 575 L 555 575 L 556 574 L 557 574 L 559 572 L 560 572 L 561 571 L 562 571 L 564 569 L 565 569 L 566 568 L 567 568 L 569 566 L 570 566 L 571 565 L 572 565 L 574 563 L 575 563 L 577 561 L 578 561 L 580 559 L 581 559 L 584 556 L 585 556 L 587 554 L 588 554 L 591 551 L 592 551 L 595 548 L 596 548 L 601 543 L 602 543 L 607 538 L 608 538 L 619 527 L 620 527 L 623 524 L 625 526 L 625 527 L 631 533 L 631 534 L 636 539 L 636 540 L 642 546 L 642 547 L 648 553 L 648 554 L 653 559 L 653 560 L 659 566 L 659 567 L 665 573 L 665 574 L 670 579 L 670 580 L 675 585 L 675 586 L 681 592 L 681 593 L 687 599 L 687 600 L 692 605 L 692 606 L 698 612 L 698 613 L 703 618 L 703 619 L 709 625 L 709 626 L 715 632 L 715 633 L 720 638 L 720 639 L 726 645 L 726 646 L 731 651 L 731 652 L 737 658 L 737 659 L 743 665 L 743 666 L 748 671 L 748 672 L 753 677 L 753 678 L 756 681 L 755 680 L 755 679 L 752 676 L 752 675 L 750 673 L 750 672 L 748 670 L 748 669 L 746 667 L 746 666 L 744 664 L 744 663 L 742 661 L 742 660 L 740 658 L 740 657 L 738 655 L 738 654 L 736 652 L 736 651 L 734 649 L 734 648 L 732 646 L 732 645 L 730 643 L 730 642 L 728 640 L 728 639 L 726 637 L 726 636 L 724 634 L 724 633 L 722 631 L 722 630 L 720 628 L 720 627 L 717 624 L 717 623 L 715 621 L 715 620 L 713 618 L 713 617 L 711 615 L 711 614 L 709 612 L 709 611 L 707 609 L 707 608 L 705 606 L 705 605 L 703 603 L 703 602 L 701 600 L 701 599 L 699 597 L 699 596 L 697 594 L 697 593 L 695 591 L 695 590 L 693 588 L 693 587 L 691 585 L 691 584 L 689 582 L 689 581 L 687 579 L 687 578 L 685 576 L 685 575 L 683 573 L 683 572 L 681 570 L 681 569 L 679 567 L 679 566 L 677 564 L 677 563 L 675 561 L 675 560 L 673 558 L 673 557 L 670 554 L 670 553 L 668 551 L 668 550 L 667 549 L 667 548 L 664 545 L 664 544 L 663 543 L 663 542 L 660 539 L 660 538 L 658 536 L 658 535 L 656 533 L 656 532 L 654 530 L 654 529 L 652 527 L 652 526 L 650 524 L 650 523 L 648 521 L 648 520 L 646 518 L 646 517 L 644 515 L 644 514 L 642 512 L 642 511 L 640 509 L 640 508 L 639 507 L 639 506 L 643 502 L 643 501 L 647 497 L 647 496 L 651 492 L 651 491 L 654 488 L 654 487 L 656 485 L 656 484 L 658 482 L 658 481 L 661 478 L 661 477 L 663 475 L 663 474 L 665 472 L 665 471 L 666 470 L 666 469 L 668 467 L 668 466 L 669 465 L 669 464 L 671 462 L 671 461 L 672 460 L 672 459 L 673 458 L 673 457 L 675 455 L 675 454 L 676 453 L 676 452 L 677 451 L 677 450 L 678 449 L 678 448 L 679 447 L 679 446 L 680 445 L 680 444 L 681 443 L 681 442 L 682 441 L 682 440 L 683 439 L 683 438 L 684 437 L 684 436 L 685 435 L 685 434 L 686 433 L 686 431 L 687 430 L 687 429 L 688 428 L 688 427 L 689 426 L 689 424 L 690 423 L 690 422 L 691 421 L 691 419 L 692 418 L 692 417 L 693 416 L 693 414 L 694 413 L 694 411 L 695 410 L 695 408 L 696 407 L 696 406 L 697 405 L 697 403 L 698 402 L 698 399 L 699 398 L 699 396 L 700 395 L 700 393 L 701 392 L 701 389 L 702 388 L 702 386 L 703 385 L 703 381 L 704 380 L 704 377 L 705 376 L 705 373 L 706 372 L 706 368 L 707 367 L 707 363 L 708 362 L 708 357 L 709 356 L 709 350 L 710 349 L 710 342 L 711 341 L 711 331 L 712 330 L 712 286 L 711 285 L 711 275 L 710 274 L 710 267 L 709 266 L 709 260 L 708 259 L 708 254 L 707 253 L 707 249 L 706 248 L 706 244 L 705 243 L 705 240 L 704 239 L 704 236 L 703 235 L 703 231 L 702 230 L 702 228 L 701 227 L 701 224 L 700 223 L 700 221 L 699 220 L 699 218 L 698 217 L 698 214 L 697 213 L 697 211 L 696 210 L 696 209 L 695 208 L 695 206 L 694 205 L 694 203 L 693 202 L 693 200 L 692 199 L 692 198 L 691 197 L 691 195 L 690 194 L 690 193 L 689 192 L 689 190 L 688 189 L 688 188 L 687 187 L 687 186 L 686 185 L 686 183 L 685 182 L 685 181 L 684 180 L 684 179 L 683 178 L 683 177 L 682 176 L 682 175 L 681 174 L 681 173 L 680 172 L 680 171 L 679 170 L 679 169 L 678 168 L 678 167 L 677 166 L 677 165 L 676 164 L 676 163 L 675 162 L 675 161 L 673 159 L 673 158 L 672 157 L 672 156 L 671 155 L 671 154 L 669 152 L 669 151 L 668 150 L 668 149 L 666 147 L 666 146 L 665 145 L 665 144 L 663 142 L 663 141 L 661 139 L 661 138 L 659 136 L 659 135 L 657 133 L 659 131 L 660 131 L 662 129 L 663 129 L 664 128 L 665 128 L 667 126 L 668 126 L 670 124 L 671 124 L 673 122 L 674 122 L 676 120 L 677 120 L 678 119 L 679 119 L 681 117 L 682 117 L 684 115 L 685 115 L 687 113 L 688 113 L 690 111 L 691 111 L 692 110 L 693 110 L 695 108 L 696 108 L 698 106 L 699 106 L 701 104 L 702 104 L 704 102 L 705 102 L 707 100 L 708 100 L 709 99 L 710 99 L 712 97 L 713 97 L 715 95 L 716 95 L 718 93 L 719 93 L 721 91 L 722 91 L 723 90 L 724 90 L 726 88 L 727 88 L 729 86 L 730 86 L 732 84 L 733 84 L 735 82 L 736 82 L 737 81 L 738 81 L 740 79 L 741 79 L 743 77 L 744 77 L 746 75 L 747 75 L 749 73 L 750 73 L 752 71 L 753 71 L 754 70 L 755 70 L 757 68 L 758 68 L 760 66 L 761 66 L 763 64 L 764 64 L 765 63 L 766 63 L 768 61 L 769 61 L 771 59 L 772 59 L 774 57 L 775 57 L 777 55 L 778 55 L 780 53 L 781 53 L 782 52 L 783 52 L 785 50 L 786 50 L 788 48 L 789 48 L 791 46 L 792 46 L 794 44 L 795 44 L 796 43 L 797 43 L 799 41 L 800 41 L 802 39 L 803 39 L 805 37 L 806 37 L 808 35 L 809 35 L 811 33 L 812 33 L 813 32 L 814 32 L 816 30 L 817 30 L 819 28 L 820 28 L 822 26 L 823 26 L 825 24 L 826 24 L 827 23 L 828 23 L 830 21 L 831 21 L 833 19 L 834 19 L 836 17 L 837 17 L 839 15 L 840 15 L 841 14 L 842 14 L 844 12 L 845 12 L 847 10 L 848 10 L 850 8 L 851 8 Z" fill="none" stroke="black" stroke-width="1"/>
</svg>