<svg xmlns="http://www.w3.org/2000/svg" viewBox="0 0 720 673">
    <path d="M 36 180 L 35 183 L 38 185 L 38 187 L 36 191 L 32 196 L 31 199 L 29 201 L 23 213 L 23 215 L 20 220 L 20 222 L 19 223 L 18 228 L 16 231 L 16 234 L 15 235 L 15 238 L 14 239 L 14 242 L 13 243 L 13 246 L 12 247 L 12 252 L 11 253 L 5 250 L 5 249 L 4 248 L 4 240 L 5 239 L 5 234 L 6 233 L 6 230 L 7 229 L 7 225 L 8 224 L 8 222 L 9 221 L 9 217 L 10 216 L 10 215 L 11 214 L 11 212 L 12 211 L 12 210 L 13 209 L 13 208 L 12 207 L 12 205 L 13 204 L 13 202 L 14 201 L 14 199 L 15 198 L 15 196 L 16 195 L 16 194 L 17 193 L 17 192 L 18 191 L 18 188 L 16 190 L 16 191 L 14 193 L 14 194 L 13 195 L 13 196 L 12 197 L 12 198 L 11 199 L 10 199 L 9 198 L 9 197 L 10 196 L 10 195 L 11 194 L 11 193 L 12 192 L 12 191 L 13 190 L 13 189 L 14 188 L 14 187 L 16 185 L 16 184 L 17 183 L 17 182 L 18 181 L 18 180 L 19 179 L 19 178 L 20 177 L 20 176 L 22 174 L 22 172 L 23 171 L 23 170 L 24 169 L 20 173 L 20 174 L 16 178 L 16 179 L 14 181 L 14 182 L 12 184 L 12 185 L 11 186 L 11 187 L 10 188 L 10 189 L 8 191 L 8 192 L 7 193 L 7 194 L 5 196 L 5 197 L 4 198 L 4 199 L 3 200 L 3 201 L 2 202 L 2 203 L 1 204 L 0 204 L 0 266 L 1 266 L 2 273 L 2 275 L 1 276 L 0 276 L 0 285 L 1 285 L 1 284 L 2 283 L 2 273 L 1 266 L 1 265 L 2 264 L 2 258 L 1 257 L 1 249 L 2 248 L 3 248 L 4 249 L 4 252 L 4 251 L 5 250 L 11 253 L 11 260 L 10 261 L 10 270 L 9 271 L 9 302 L 10 303 L 10 308 L 11 309 L 11 312 L 12 313 L 13 318 L 15 321 L 15 330 L 16 331 L 16 336 L 17 337 L 17 341 L 18 342 L 18 345 L 19 346 L 19 350 L 20 351 L 21 358 L 23 362 L 23 366 L 24 367 L 24 370 L 25 371 L 25 373 L 26 374 L 27 379 L 29 382 L 29 384 L 33 392 L 34 393 L 34 392 L 33 391 L 33 388 L 32 387 L 32 384 L 31 383 L 31 380 L 30 379 L 30 376 L 29 375 L 29 371 L 28 370 L 28 365 L 27 364 L 27 357 L 26 356 L 26 349 L 25 348 L 25 345 L 26 344 L 28 345 L 29 348 L 34 354 L 36 358 L 44 367 L 46 371 L 46 375 L 47 376 L 47 378 L 48 379 L 48 382 L 49 383 L 49 385 L 50 387 L 51 385 L 51 383 L 53 381 L 54 381 L 56 383 L 56 390 L 57 391 L 57 394 L 58 395 L 58 397 L 59 398 L 59 400 L 60 401 L 60 403 L 62 407 L 62 410 L 64 413 L 64 415 L 71 429 L 73 431 L 74 434 L 76 436 L 79 442 L 82 445 L 82 448 L 77 451 L 76 451 L 74 449 L 74 448 L 70 443 L 69 440 L 66 437 L 66 436 L 60 428 L 59 425 L 57 423 L 55 419 L 56 420 L 56 422 L 57 423 L 58 428 L 60 431 L 60 433 L 63 438 L 63 441 L 66 444 L 68 448 L 67 450 L 65 450 L 59 444 L 59 443 L 55 439 L 55 438 L 49 430 L 44 420 L 40 416 L 40 415 L 35 410 L 35 409 L 29 402 L 24 392 L 22 390 L 22 388 L 20 385 L 20 383 L 20 388 L 21 389 L 21 392 L 22 393 L 23 400 L 24 401 L 24 403 L 25 404 L 25 407 L 27 410 L 28 415 L 31 420 L 31 422 L 34 428 L 36 430 L 37 433 L 43 441 L 43 443 L 46 446 L 46 447 L 56 457 L 56 459 L 54 461 L 52 461 L 46 464 L 44 466 L 41 467 L 29 479 L 29 480 L 27 482 L 26 485 L 24 487 L 21 493 L 19 492 L 19 490 L 22 484 L 21 481 L 24 478 L 24 477 L 27 474 L 27 473 L 37 463 L 35 463 L 26 472 L 26 473 L 23 476 L 15 492 L 15 496 L 14 497 L 14 503 L 13 504 L 13 513 L 14 514 L 17 513 L 17 511 L 19 509 L 20 509 L 21 510 L 21 511 L 20 512 L 20 513 L 19 514 L 18 514 L 17 513 L 14 514 L 14 519 L 13 520 L 11 520 L 10 519 L 10 513 L 9 512 L 9 503 L 10 502 L 10 496 L 11 495 L 11 493 L 12 492 L 13 487 L 17 479 L 22 473 L 22 472 L 30 464 L 25 469 L 24 469 L 24 470 L 19 475 L 16 481 L 14 483 L 14 485 L 11 491 L 11 494 L 10 495 L 10 500 L 9 501 L 9 515 L 10 516 L 10 521 L 11 522 L 11 525 L 12 526 L 12 528 L 13 529 L 13 532 L 14 533 L 14 540 L 13 541 L 12 541 L 10 539 L 6 531 L 6 529 L 4 525 L 4 521 L 3 520 L 3 515 L 2 514 L 2 500 L 3 499 L 3 494 L 4 493 L 4 490 L 5 489 L 6 484 L 11 474 L 14 471 L 14 470 L 17 467 L 17 466 L 27 456 L 28 456 L 34 451 L 32 450 L 26 455 L 25 455 L 16 464 L 16 465 L 13 468 L 13 469 L 9 474 L 7 478 L 7 480 L 4 485 L 4 488 L 3 489 L 2 494 L 0 495 L 0 506 L 2 507 L 2 516 L 3 517 L 3 522 L 4 523 L 4 526 L 5 527 L 6 532 L 13 544 L 14 549 L 17 555 L 18 555 L 21 558 L 24 564 L 28 569 L 27 567 L 29 566 L 34 571 L 37 571 L 36 570 L 34 570 L 26 562 L 26 561 L 23 558 L 23 557 L 19 552 L 17 548 L 17 542 L 19 541 L 21 544 L 21 546 L 22 547 L 22 550 L 23 551 L 24 550 L 26 551 L 31 561 L 32 562 L 34 562 L 55 583 L 56 583 L 61 588 L 62 588 L 68 593 L 71 594 L 73 596 L 81 600 L 83 602 L 95 608 L 97 608 L 101 611 L 111 616 L 113 616 L 121 620 L 121 621 L 119 622 L 113 619 L 111 619 L 110 618 L 105 617 L 101 614 L 98 614 L 94 611 L 86 607 L 84 607 L 81 605 L 81 607 L 80 608 L 78 607 L 78 608 L 96 617 L 98 617 L 103 620 L 105 620 L 106 621 L 108 621 L 109 622 L 111 622 L 115 624 L 118 624 L 119 625 L 121 625 L 122 626 L 125 626 L 129 628 L 133 628 L 134 629 L 137 629 L 140 621 L 139 620 L 139 619 L 140 618 L 143 618 L 144 619 L 144 620 L 143 621 L 140 621 L 137 629 L 138 630 L 142 630 L 143 631 L 146 631 L 147 632 L 152 632 L 153 633 L 157 633 L 158 634 L 161 634 L 164 637 L 165 637 L 166 635 L 167 635 L 169 637 L 172 636 L 173 638 L 171 641 L 173 641 L 175 643 L 179 643 L 181 645 L 181 648 L 183 648 L 185 650 L 185 651 L 187 651 L 188 652 L 191 652 L 192 650 L 191 649 L 191 648 L 192 647 L 193 647 L 195 645 L 196 645 L 201 640 L 201 639 L 203 637 L 203 636 L 203 636 L 202 637 L 202 638 L 200 640 L 200 641 L 197 644 L 196 644 L 195 643 L 195 641 L 197 639 L 197 638 L 201 634 L 202 634 L 203 635 L 203 636 L 203 636 L 205 634 L 205 633 L 206 632 L 206 631 L 207 630 L 207 629 L 201 623 L 200 624 L 173 624 L 171 622 L 171 620 L 170 619 L 170 617 L 169 616 L 169 614 L 168 613 L 168 611 L 167 610 L 167 608 L 166 607 L 166 605 L 165 604 L 165 602 L 164 601 L 164 599 L 163 598 L 163 596 L 162 595 L 162 592 L 161 591 L 161 589 L 160 588 L 160 586 L 159 585 L 159 583 L 158 582 L 158 580 L 157 579 L 157 577 L 156 576 L 156 574 L 155 573 L 155 571 L 154 570 L 154 567 L 153 566 L 153 564 L 152 563 L 152 561 L 151 560 L 151 558 L 150 557 L 150 555 L 149 554 L 149 552 L 148 551 L 148 549 L 147 548 L 147 546 L 146 545 L 146 543 L 145 542 L 145 539 L 144 538 L 144 536 L 143 535 L 143 533 L 142 532 L 142 530 L 141 529 L 141 527 L 140 526 L 140 524 L 139 523 L 139 521 L 138 520 L 138 518 L 137 517 L 137 514 L 136 513 L 136 512 L 137 511 L 134 504 L 133 504 L 132 505 L 130 505 L 129 506 L 128 506 L 127 507 L 126 507 L 125 508 L 124 508 L 122 510 L 121 510 L 120 511 L 119 511 L 116 514 L 115 514 L 107 522 L 107 523 L 105 525 L 105 526 L 103 528 L 103 530 L 102 531 L 102 532 L 101 533 L 101 535 L 100 536 L 100 552 L 101 553 L 101 555 L 102 556 L 102 558 L 103 559 L 103 560 L 104 561 L 104 563 L 106 565 L 106 566 L 107 567 L 107 568 L 109 570 L 109 571 L 111 573 L 111 574 L 115 578 L 115 579 L 125 589 L 126 589 L 129 592 L 129 593 L 128 594 L 127 594 L 126 593 L 125 593 L 124 592 L 123 592 L 122 591 L 121 591 L 120 590 L 119 590 L 118 589 L 117 589 L 116 588 L 115 588 L 114 587 L 113 587 L 112 586 L 111 586 L 110 585 L 109 585 L 108 584 L 107 584 L 106 583 L 105 583 L 104 582 L 103 582 L 101 580 L 100 580 L 99 579 L 98 579 L 96 577 L 95 577 L 93 575 L 92 575 L 90 573 L 89 573 L 87 571 L 86 571 L 84 569 L 83 569 L 79 565 L 78 565 L 72 559 L 71 559 L 64 552 L 64 551 L 59 546 L 59 545 L 56 542 L 56 541 L 55 540 L 55 539 L 53 537 L 53 536 L 52 535 L 52 534 L 51 533 L 51 532 L 50 531 L 50 529 L 49 528 L 49 525 L 48 524 L 48 509 L 49 508 L 49 505 L 50 504 L 50 503 L 51 502 L 51 501 L 52 500 L 52 499 L 55 496 L 55 495 L 64 486 L 65 486 L 67 484 L 68 484 L 70 482 L 71 482 L 72 481 L 73 481 L 75 479 L 76 479 L 77 478 L 78 478 L 79 477 L 81 477 L 82 476 L 83 476 L 84 475 L 86 475 L 87 474 L 88 474 L 89 473 L 91 473 L 92 472 L 94 472 L 95 471 L 97 471 L 98 470 L 101 470 L 102 469 L 105 469 L 106 468 L 109 468 L 110 467 L 114 467 L 115 466 L 120 466 L 121 465 L 127 465 L 128 464 L 136 464 L 137 463 L 149 463 L 150 462 L 182 462 L 183 463 L 196 463 L 197 464 L 207 464 L 208 465 L 215 465 L 218 440 L 214 436 L 214 435 L 215 434 L 215 432 L 218 429 L 219 429 L 220 428 L 224 428 L 225 427 L 227 427 L 228 426 L 230 426 L 231 425 L 236 425 L 237 426 L 237 427 L 236 428 L 234 428 L 233 429 L 231 429 L 230 430 L 228 430 L 227 431 L 226 431 L 226 433 L 225 434 L 225 436 L 221 440 L 218 440 L 215 465 L 216 466 L 222 466 L 223 467 L 228 467 L 229 468 L 234 468 L 235 469 L 239 469 L 240 470 L 243 470 L 244 471 L 248 471 L 249 472 L 252 472 L 253 473 L 256 473 L 257 474 L 260 474 L 261 475 L 263 475 L 264 476 L 267 476 L 268 477 L 270 477 L 275 459 L 274 458 L 273 458 L 272 457 L 271 457 L 269 455 L 269 454 L 268 453 L 268 448 L 269 447 L 269 439 L 270 438 L 270 434 L 271 433 L 271 430 L 272 429 L 272 426 L 273 425 L 273 423 L 274 422 L 274 420 L 273 420 L 271 418 L 270 418 L 268 416 L 268 414 L 269 413 L 275 413 L 276 414 L 284 414 L 285 415 L 316 415 L 317 414 L 319 387 L 310 387 L 309 386 L 309 385 L 310 384 L 311 384 L 312 383 L 313 383 L 314 382 L 316 382 L 317 381 L 320 381 L 321 382 L 323 382 L 324 383 L 324 384 L 322 386 L 320 386 L 319 387 L 317 414 L 334 414 L 335 415 L 335 416 L 333 418 L 327 418 L 326 419 L 321 419 L 320 420 L 312 420 L 311 421 L 300 421 L 296 425 L 295 425 L 293 427 L 293 428 L 292 429 L 292 430 L 291 431 L 291 432 L 290 433 L 290 434 L 289 435 L 289 436 L 288 437 L 288 438 L 287 439 L 287 440 L 286 441 L 286 443 L 285 444 L 285 445 L 284 446 L 284 447 L 283 448 L 283 449 L 282 450 L 282 451 L 281 452 L 281 453 L 280 454 L 280 456 L 279 457 L 279 458 L 278 459 L 275 459 L 270 477 L 271 478 L 273 478 L 274 479 L 276 479 L 277 480 L 279 480 L 280 481 L 282 481 L 283 482 L 284 482 L 285 483 L 287 483 L 288 484 L 289 484 L 290 485 L 292 485 L 293 486 L 294 486 L 295 487 L 296 487 L 297 488 L 299 488 L 300 489 L 301 489 L 302 490 L 303 490 L 304 491 L 305 491 L 306 492 L 308 492 L 309 493 L 310 493 L 312 495 L 313 495 L 314 496 L 315 496 L 316 497 L 317 497 L 318 498 L 319 498 L 320 499 L 321 499 L 322 500 L 323 500 L 325 502 L 326 502 L 327 503 L 328 503 L 330 505 L 331 505 L 332 506 L 333 506 L 335 508 L 336 508 L 338 510 L 339 510 L 341 512 L 342 512 L 345 515 L 346 515 L 349 518 L 350 518 L 354 522 L 355 522 L 362 529 L 363 529 L 365 531 L 365 532 L 366 532 L 369 535 L 369 536 L 376 543 L 376 544 L 379 547 L 383 546 L 383 545 L 381 543 L 381 542 L 377 538 L 377 537 L 363 523 L 363 512 L 364 511 L 386 511 L 387 512 L 387 547 L 386 548 L 385 548 L 383 546 L 379 547 L 379 548 L 381 550 L 381 551 L 382 552 L 382 553 L 384 555 L 384 556 L 385 557 L 385 558 L 386 559 L 386 560 L 385 561 L 383 561 L 377 555 L 376 555 L 373 557 L 378 562 L 379 562 L 385 568 L 385 569 L 387 571 L 389 571 L 394 566 L 394 565 L 395 564 L 396 564 L 396 563 L 418 541 L 440 541 L 441 542 L 442 542 L 443 543 L 443 544 L 424 563 L 423 563 L 423 564 L 421 566 L 420 566 L 414 572 L 415 573 L 415 574 L 416 575 L 416 576 L 418 578 L 418 579 L 420 581 L 420 582 L 422 584 L 422 585 L 424 587 L 424 588 L 426 590 L 426 591 L 428 593 L 428 594 L 430 596 L 430 597 L 432 599 L 432 600 L 434 602 L 434 603 L 436 605 L 436 606 L 438 608 L 438 609 L 440 611 L 440 612 L 442 614 L 442 615 L 444 617 L 450 614 L 450 613 L 449 612 L 449 610 L 448 609 L 448 606 L 447 605 L 447 597 L 448 596 L 448 593 L 449 592 L 449 591 L 450 590 L 450 589 L 451 588 L 451 587 L 456 582 L 457 582 L 459 580 L 460 580 L 461 579 L 463 579 L 464 578 L 466 578 L 467 577 L 470 577 L 471 576 L 476 576 L 477 575 L 484 575 L 485 574 L 491 574 L 492 573 L 495 573 L 496 572 L 497 572 L 498 571 L 499 571 L 500 570 L 500 569 L 501 568 L 501 564 L 500 563 L 500 561 L 497 558 L 496 558 L 495 557 L 492 557 L 491 556 L 484 556 L 483 557 L 480 557 L 479 558 L 478 558 L 476 560 L 476 561 L 475 562 L 475 563 L 474 564 L 474 566 L 472 568 L 451 568 L 450 567 L 450 562 L 451 561 L 451 559 L 452 558 L 452 557 L 453 556 L 453 555 L 454 554 L 454 553 L 461 546 L 462 546 L 463 545 L 464 545 L 465 544 L 466 544 L 467 543 L 468 543 L 469 542 L 471 542 L 472 541 L 475 541 L 476 540 L 484 540 L 485 539 L 492 539 L 493 540 L 502 540 L 503 541 L 506 541 L 507 542 L 509 542 L 510 543 L 511 543 L 512 544 L 513 544 L 514 545 L 515 545 L 522 552 L 522 553 L 523 554 L 523 556 L 524 557 L 524 610 L 525 611 L 525 618 L 526 619 L 526 621 L 527 622 L 527 623 L 526 624 L 504 624 L 503 623 L 503 622 L 502 621 L 502 618 L 501 618 L 493 608 L 495 606 L 496 606 L 497 605 L 497 604 L 499 602 L 499 600 L 500 599 L 500 595 L 501 594 L 501 586 L 499 586 L 498 587 L 496 587 L 495 588 L 491 588 L 490 589 L 484 589 L 483 590 L 480 590 L 479 591 L 477 591 L 476 592 L 475 592 L 472 595 L 472 596 L 471 597 L 471 603 L 472 604 L 472 605 L 475 608 L 476 608 L 477 609 L 482 609 L 483 610 L 485 610 L 486 609 L 491 609 L 492 608 L 493 608 L 501 618 L 499 620 L 498 620 L 496 622 L 495 622 L 494 623 L 492 623 L 491 624 L 489 624 L 488 625 L 485 625 L 484 626 L 467 626 L 466 625 L 464 625 L 463 624 L 461 624 L 460 623 L 459 623 L 457 621 L 456 621 L 452 617 L 452 616 L 450 614 L 444 617 L 444 618 L 445 619 L 445 620 L 447 622 L 447 623 L 446 624 L 420 624 L 417 621 L 417 620 L 416 619 L 416 618 L 414 616 L 414 615 L 412 613 L 412 612 L 411 611 L 411 610 L 409 608 L 409 607 L 407 605 L 407 604 L 406 603 L 406 602 L 404 600 L 404 599 L 402 597 L 402 596 L 401 595 L 401 594 L 399 592 L 399 591 L 397 589 L 397 588 L 395 586 L 395 585 L 394 584 L 394 583 L 392 581 L 392 580 L 390 578 L 390 577 L 389 576 L 389 571 L 387 571 L 387 622 L 385 624 L 364 624 L 363 623 L 363 553 L 364 552 L 365 552 L 366 553 L 367 553 L 369 555 L 370 555 L 372 557 L 373 557 L 376 555 L 372 551 L 371 551 L 368 548 L 367 548 L 365 546 L 364 546 L 361 543 L 360 543 L 358 541 L 357 541 L 355 539 L 354 539 L 353 538 L 352 538 L 350 536 L 349 536 L 347 534 L 346 534 L 345 533 L 344 533 L 342 531 L 341 531 L 340 530 L 339 530 L 338 529 L 337 529 L 336 528 L 335 528 L 334 527 L 333 527 L 332 526 L 331 526 L 329 529 L 331 531 L 332 531 L 333 532 L 334 532 L 335 533 L 336 533 L 337 534 L 338 534 L 340 536 L 341 536 L 342 537 L 343 537 L 344 538 L 345 538 L 348 541 L 348 623 L 347 624 L 325 624 L 324 623 L 324 529 L 325 528 L 327 528 L 328 529 L 329 529 L 331 526 L 330 525 L 329 525 L 327 523 L 325 523 L 324 522 L 323 522 L 322 521 L 321 521 L 320 520 L 319 520 L 318 519 L 317 519 L 316 518 L 314 518 L 313 517 L 312 517 L 311 516 L 310 516 L 309 515 L 307 515 L 306 514 L 305 514 L 304 513 L 302 513 L 301 512 L 300 512 L 299 511 L 296 511 L 295 510 L 293 510 L 292 509 L 291 509 L 290 508 L 288 508 L 287 507 L 284 507 L 283 506 L 281 506 L 280 505 L 278 505 L 277 504 L 274 504 L 273 503 L 270 503 L 269 502 L 265 502 L 264 501 L 261 501 L 260 500 L 257 500 L 256 499 L 252 499 L 251 498 L 246 498 L 245 497 L 240 497 L 239 496 L 233 496 L 232 495 L 223 495 L 222 494 L 206 494 L 205 493 L 190 493 L 189 494 L 175 494 L 174 495 L 166 495 L 165 496 L 160 496 L 159 497 L 156 497 L 155 498 L 151 498 L 150 499 L 147 499 L 146 500 L 144 500 L 143 501 L 141 501 L 140 502 L 138 502 L 137 503 L 135 503 L 134 504 L 137 511 L 162 511 L 163 512 L 163 514 L 164 515 L 164 517 L 165 518 L 165 520 L 166 521 L 166 524 L 167 525 L 167 527 L 168 528 L 168 530 L 169 531 L 169 533 L 170 534 L 170 536 L 171 537 L 171 540 L 172 541 L 172 543 L 173 544 L 173 546 L 174 547 L 174 549 L 175 550 L 175 552 L 176 553 L 176 556 L 177 557 L 177 559 L 178 560 L 178 562 L 179 563 L 179 565 L 180 566 L 180 568 L 181 569 L 181 571 L 182 572 L 182 574 L 183 575 L 183 578 L 184 579 L 184 581 L 185 582 L 185 584 L 186 585 L 186 587 L 187 587 L 187 585 L 188 584 L 188 582 L 189 581 L 189 579 L 190 578 L 190 575 L 191 574 L 191 573 L 192 572 L 192 569 L 193 568 L 193 566 L 194 565 L 194 563 L 195 562 L 195 560 L 196 559 L 196 557 L 197 556 L 197 554 L 198 553 L 198 550 L 199 549 L 199 547 L 200 546 L 200 544 L 201 543 L 201 541 L 202 540 L 202 538 L 203 537 L 203 535 L 204 534 L 204 532 L 205 531 L 205 528 L 206 527 L 206 525 L 207 524 L 207 522 L 208 521 L 208 519 L 209 518 L 209 516 L 210 515 L 210 513 L 212 511 L 236 511 L 237 512 L 237 515 L 236 516 L 236 518 L 235 519 L 235 521 L 234 522 L 234 524 L 233 525 L 233 527 L 232 528 L 232 530 L 231 531 L 231 533 L 230 534 L 230 536 L 229 537 L 229 539 L 228 540 L 228 542 L 234 543 L 235 542 L 236 542 L 237 541 L 255 541 L 256 542 L 257 542 L 258 543 L 258 592 L 259 593 L 259 598 L 260 599 L 260 601 L 261 602 L 261 603 L 263 605 L 264 605 L 265 606 L 267 606 L 268 607 L 276 607 L 277 606 L 279 606 L 280 605 L 281 605 L 285 601 L 285 599 L 286 598 L 286 596 L 287 595 L 287 590 L 288 589 L 288 543 L 289 542 L 292 542 L 293 541 L 309 541 L 312 544 L 312 622 L 310 624 L 290 624 L 289 623 L 289 614 L 287 616 L 287 617 L 285 619 L 284 619 L 281 622 L 280 622 L 279 623 L 278 623 L 277 624 L 276 624 L 275 625 L 273 625 L 272 626 L 256 626 L 255 625 L 252 625 L 251 624 L 250 624 L 249 623 L 247 623 L 239 615 L 239 614 L 238 613 L 238 612 L 237 611 L 237 609 L 236 608 L 236 605 L 235 604 L 235 597 L 234 596 L 234 543 L 228 542 L 227 543 L 227 545 L 226 546 L 226 548 L 225 549 L 225 551 L 224 552 L 224 554 L 223 555 L 223 557 L 222 558 L 222 560 L 221 561 L 221 563 L 220 564 L 220 566 L 219 567 L 219 570 L 218 571 L 218 572 L 217 573 L 217 575 L 216 576 L 216 579 L 215 580 L 215 582 L 214 583 L 214 585 L 213 586 L 213 588 L 212 589 L 212 591 L 211 592 L 211 594 L 210 595 L 210 597 L 209 598 L 209 600 L 208 601 L 208 603 L 207 604 L 207 606 L 206 607 L 206 609 L 205 610 L 205 612 L 204 613 L 204 615 L 203 616 L 203 618 L 202 619 L 202 621 L 201 622 L 201 623 L 207 629 L 208 628 L 209 628 L 210 629 L 210 630 L 209 631 L 209 632 L 208 633 L 208 634 L 207 635 L 207 636 L 205 638 L 205 639 L 204 640 L 204 641 L 197 648 L 196 648 L 195 649 L 194 649 L 193 650 L 192 650 L 191 652 L 192 653 L 192 655 L 195 653 L 197 653 L 201 651 L 205 648 L 205 647 L 211 639 L 215 631 L 217 631 L 221 633 L 223 635 L 228 637 L 230 639 L 240 644 L 242 644 L 243 645 L 245 645 L 246 646 L 248 646 L 252 648 L 258 648 L 259 649 L 280 649 L 281 648 L 286 648 L 287 647 L 294 647 L 298 649 L 305 649 L 306 648 L 307 648 L 304 648 L 303 647 L 303 646 L 304 645 L 307 645 L 308 646 L 308 647 L 307 648 L 306 648 L 312 648 L 313 647 L 315 647 L 325 642 L 327 643 L 328 646 L 330 645 L 333 645 L 334 646 L 336 643 L 338 644 L 340 644 L 341 643 L 343 643 L 345 642 L 347 644 L 348 644 L 349 646 L 351 645 L 357 645 L 358 646 L 360 646 L 364 650 L 366 654 L 366 652 L 369 648 L 376 648 L 377 647 L 380 647 L 381 646 L 383 646 L 385 644 L 386 644 L 387 643 L 387 641 L 390 638 L 392 638 L 395 635 L 396 633 L 396 631 L 397 630 L 398 630 L 400 632 L 398 630 L 398 628 L 399 627 L 401 627 L 402 629 L 411 637 L 411 638 L 409 639 L 410 639 L 417 645 L 418 645 L 428 655 L 430 656 L 432 656 L 432 653 L 430 651 L 430 650 L 431 649 L 432 649 L 433 650 L 434 650 L 435 651 L 435 652 L 434 653 L 432 653 L 432 656 L 439 649 L 445 647 L 445 644 L 447 642 L 447 639 L 448 638 L 453 638 L 454 639 L 453 638 L 454 636 L 458 636 L 459 637 L 463 637 L 464 638 L 469 638 L 470 639 L 493 639 L 494 640 L 493 642 L 479 642 L 478 643 L 467 643 L 470 643 L 471 644 L 496 644 L 497 645 L 497 647 L 494 649 L 490 649 L 493 649 L 494 650 L 494 652 L 498 652 L 499 651 L 503 651 L 504 650 L 507 650 L 508 649 L 517 648 L 518 646 L 520 646 L 521 647 L 525 647 L 533 643 L 540 643 L 541 642 L 542 642 L 545 645 L 549 647 L 552 647 L 556 647 L 556 648 L 559 648 L 560 647 L 563 647 L 564 646 L 565 646 L 566 645 L 567 645 L 568 644 L 569 644 L 569 643 L 568 643 L 567 644 L 566 644 L 565 645 L 564 645 L 563 646 L 561 646 L 560 647 L 556 647 L 552 647 L 547 645 L 545 643 L 545 641 L 546 640 L 548 641 L 552 641 L 553 642 L 559 642 L 561 640 L 563 640 L 565 639 L 570 634 L 570 631 L 572 629 L 571 629 L 571 630 L 569 632 L 569 633 L 566 636 L 565 636 L 564 635 L 564 634 L 565 633 L 565 632 L 569 628 L 570 628 L 571 629 L 572 629 L 572 628 L 575 626 L 576 624 L 578 625 L 578 631 L 575 636 L 577 635 L 577 632 L 579 630 L 582 629 L 586 633 L 592 636 L 594 636 L 595 637 L 597 637 L 601 639 L 604 639 L 605 640 L 607 640 L 608 638 L 613 637 L 613 634 L 616 632 L 613 624 L 591 624 L 590 623 L 590 571 L 589 570 L 589 567 L 588 566 L 588 564 L 584 560 L 582 560 L 581 559 L 572 559 L 571 560 L 569 560 L 568 561 L 567 561 L 564 564 L 564 565 L 563 566 L 563 567 L 562 568 L 562 571 L 561 572 L 561 623 L 560 624 L 538 624 L 537 623 L 537 543 L 539 541 L 557 541 L 558 542 L 559 542 L 560 543 L 560 551 L 567 544 L 568 544 L 569 543 L 570 543 L 571 542 L 572 542 L 573 541 L 575 541 L 576 540 L 581 540 L 582 539 L 587 539 L 588 540 L 594 540 L 595 541 L 597 541 L 598 542 L 599 542 L 600 543 L 601 543 L 602 544 L 603 544 L 609 550 L 609 551 L 610 552 L 610 553 L 611 554 L 611 556 L 612 557 L 612 559 L 613 560 L 613 565 L 614 566 L 614 623 L 613 624 L 616 632 L 620 632 L 622 635 L 622 637 L 631 637 L 632 638 L 640 638 L 646 632 L 647 632 L 653 625 L 648 622 L 647 622 L 646 623 L 645 623 L 644 624 L 636 624 L 635 623 L 634 623 L 633 622 L 632 622 L 630 620 L 630 619 L 628 617 L 628 615 L 627 614 L 627 609 L 628 608 L 628 606 L 630 604 L 630 603 L 631 602 L 632 602 L 634 600 L 635 600 L 636 599 L 644 599 L 645 600 L 643 603 L 638 603 L 637 604 L 636 604 L 633 607 L 633 608 L 632 609 L 632 614 L 633 615 L 633 616 L 636 619 L 637 619 L 638 620 L 642 620 L 643 619 L 644 619 L 643 619 L 642 618 L 642 617 L 641 616 L 641 614 L 639 614 L 639 618 L 638 619 L 636 619 L 635 618 L 635 606 L 636 605 L 637 605 L 638 604 L 641 604 L 642 605 L 644 605 L 646 607 L 646 610 L 645 611 L 645 613 L 646 614 L 646 617 L 648 615 L 648 608 L 646 606 L 646 605 L 645 605 L 643 603 L 645 600 L 646 600 L 647 601 L 648 601 L 651 604 L 651 605 L 652 606 L 652 608 L 653 609 L 653 615 L 652 616 L 652 617 L 651 618 L 651 619 L 648 622 L 653 625 L 654 625 L 655 627 L 657 622 L 659 620 L 660 620 L 662 623 L 662 627 L 663 628 L 663 630 L 662 631 L 662 634 L 660 637 L 661 635 L 663 633 L 666 627 L 666 623 L 668 619 L 668 605 L 667 604 L 666 599 L 662 591 L 660 589 L 658 590 L 656 590 L 654 589 L 650 585 L 649 585 L 644 580 L 642 580 L 641 579 L 638 579 L 637 578 L 634 578 L 631 575 L 630 573 L 630 550 L 629 549 L 629 544 L 628 543 L 628 539 L 626 535 L 622 531 L 621 531 L 620 529 L 618 529 L 610 522 L 609 522 L 604 518 L 598 515 L 596 515 L 592 513 L 588 513 L 582 510 L 577 509 L 574 512 L 574 513 L 575 514 L 575 518 L 574 519 L 574 520 L 571 523 L 570 523 L 569 524 L 567 524 L 566 523 L 566 522 L 567 521 L 567 510 L 568 509 L 571 509 L 574 512 L 577 509 L 575 507 L 569 504 L 569 501 L 573 497 L 577 495 L 586 486 L 586 484 L 587 483 L 587 480 L 589 478 L 591 478 L 592 477 L 599 477 L 600 476 L 604 476 L 605 475 L 607 475 L 613 472 L 619 467 L 619 466 L 621 464 L 621 461 L 622 460 L 622 458 L 625 454 L 625 450 L 623 446 L 619 442 L 617 441 L 620 446 L 620 450 L 617 453 L 604 453 L 606 457 L 608 459 L 608 461 L 606 463 L 604 463 L 600 465 L 597 465 L 596 466 L 592 466 L 591 467 L 588 467 L 592 467 L 593 466 L 598 466 L 599 465 L 602 465 L 604 464 L 605 465 L 605 469 L 603 471 L 601 471 L 600 472 L 597 472 L 596 471 L 591 471 L 590 472 L 584 472 L 583 470 L 584 469 L 586 469 L 586 468 L 582 468 L 581 469 L 579 469 L 575 471 L 572 471 L 571 472 L 567 472 L 566 471 L 563 471 L 563 472 L 570 482 L 570 485 L 566 490 L 566 491 L 556 501 L 554 502 L 552 502 L 551 503 L 548 503 L 548 504 L 550 505 L 552 505 L 556 508 L 557 508 L 560 512 L 560 519 L 559 520 L 559 522 L 558 524 L 556 526 L 536 526 L 535 525 L 533 525 L 531 523 L 531 520 L 530 519 L 530 514 L 528 511 L 528 504 L 529 503 L 529 500 L 531 498 L 532 496 L 532 494 L 533 493 L 533 490 L 532 489 L 532 487 L 527 480 L 527 479 L 526 479 L 523 476 L 512 471 L 510 469 L 506 467 L 502 467 L 501 466 L 500 467 L 497 467 L 496 468 L 502 468 L 510 472 L 512 474 L 513 474 L 519 481 L 519 483 L 520 484 L 520 491 L 519 493 L 514 498 L 513 498 L 510 495 L 511 492 L 509 493 L 507 495 L 505 501 L 501 506 L 500 508 L 500 510 L 504 510 L 505 511 L 508 511 L 509 512 L 511 512 L 512 513 L 514 513 L 515 514 L 517 514 L 521 516 L 524 519 L 524 520 L 519 527 L 517 527 L 516 528 L 511 528 L 510 529 L 500 529 L 499 530 L 482 530 L 481 529 L 471 529 L 470 528 L 463 528 L 462 527 L 456 527 L 455 526 L 453 526 L 447 520 L 445 516 L 445 507 L 441 510 L 436 510 L 434 508 L 433 508 L 426 500 L 426 496 L 428 492 L 434 487 L 438 487 L 440 486 L 444 488 L 446 490 L 450 482 L 451 477 L 454 471 L 457 468 L 457 467 L 469 455 L 470 455 L 476 449 L 477 449 L 483 444 L 487 442 L 489 442 L 490 441 L 504 441 L 505 440 L 509 440 L 510 441 L 513 441 L 514 442 L 517 442 L 518 443 L 521 443 L 523 444 L 521 443 L 519 443 L 516 441 L 514 441 L 513 440 L 510 440 L 509 439 L 506 439 L 505 438 L 489 438 L 488 439 L 485 439 L 475 444 L 474 443 L 474 439 L 481 435 L 484 427 L 487 424 L 490 424 L 492 423 L 493 424 L 497 424 L 500 426 L 502 426 L 508 429 L 510 431 L 513 432 L 516 435 L 524 439 L 527 439 L 528 440 L 541 440 L 542 439 L 546 439 L 547 438 L 550 438 L 552 442 L 554 440 L 554 439 L 556 437 L 558 433 L 560 431 L 562 430 L 564 430 L 567 433 L 567 435 L 571 443 L 573 445 L 571 441 L 571 437 L 573 435 L 574 435 L 575 436 L 577 436 L 582 440 L 582 442 L 580 444 L 578 445 L 576 445 L 577 446 L 583 446 L 584 445 L 587 445 L 588 446 L 592 446 L 590 442 L 583 435 L 581 434 L 577 434 L 572 431 L 570 431 L 568 430 L 567 428 L 568 427 L 570 427 L 571 426 L 573 426 L 577 424 L 581 424 L 582 423 L 592 423 L 593 424 L 596 424 L 600 426 L 601 426 L 600 425 L 596 423 L 594 423 L 593 422 L 589 422 L 588 421 L 586 421 L 581 417 L 572 417 L 571 418 L 569 418 L 568 419 L 565 419 L 562 421 L 560 421 L 554 426 L 552 425 L 552 422 L 556 417 L 564 413 L 567 413 L 568 412 L 570 412 L 565 412 L 564 413 L 561 413 L 554 405 L 554 404 L 544 394 L 541 388 L 541 386 L 540 385 L 540 381 L 541 380 L 545 382 L 550 387 L 550 388 L 551 389 L 551 388 L 549 384 L 545 380 L 541 378 L 539 379 L 539 391 L 540 392 L 540 394 L 542 398 L 547 403 L 547 404 L 555 412 L 557 413 L 557 414 L 549 421 L 547 421 L 545 419 L 541 417 L 533 410 L 532 410 L 529 407 L 528 407 L 523 403 L 513 398 L 511 398 L 510 397 L 508 397 L 505 395 L 503 395 L 501 394 L 499 392 L 499 391 L 501 389 L 504 389 L 506 388 L 507 389 L 513 389 L 517 391 L 519 393 L 522 394 L 524 396 L 525 396 L 519 391 L 511 387 L 501 387 L 498 389 L 498 393 L 499 394 L 499 396 L 500 398 L 504 402 L 504 403 L 508 406 L 520 412 L 522 412 L 529 416 L 531 416 L 535 419 L 544 423 L 546 425 L 546 429 L 547 430 L 547 433 L 545 435 L 539 435 L 538 434 L 534 434 L 528 431 L 526 431 L 522 429 L 520 427 L 519 427 L 510 418 L 509 418 L 507 416 L 503 414 L 500 414 L 499 413 L 496 413 L 495 412 L 491 412 L 490 413 L 488 413 L 486 414 L 482 421 L 482 424 L 481 426 L 476 429 L 474 429 L 473 428 L 473 416 L 479 409 L 478 408 L 478 406 L 481 403 L 481 402 L 490 393 L 490 392 L 487 394 L 482 395 L 481 394 L 482 392 L 482 389 L 484 387 L 488 385 L 490 385 L 491 384 L 494 384 L 495 383 L 502 383 L 503 382 L 505 382 L 507 381 L 511 377 L 513 376 L 515 376 L 516 375 L 518 375 L 522 373 L 525 373 L 523 371 L 520 371 L 519 370 L 517 370 L 516 368 L 520 365 L 528 365 L 530 366 L 529 364 L 530 362 L 539 362 L 543 365 L 542 367 L 534 371 L 538 369 L 541 369 L 542 368 L 546 368 L 547 367 L 550 367 L 554 369 L 555 370 L 555 372 L 557 372 L 562 377 L 568 380 L 570 380 L 571 381 L 575 381 L 578 383 L 580 383 L 582 385 L 588 385 L 589 386 L 591 386 L 613 397 L 617 400 L 619 400 L 620 401 L 623 401 L 628 406 L 628 407 L 629 407 L 632 410 L 635 411 L 637 413 L 645 413 L 648 415 L 648 417 L 647 418 L 643 418 L 642 419 L 639 419 L 640 420 L 646 420 L 647 421 L 664 421 L 665 420 L 668 420 L 670 419 L 673 416 L 673 403 L 675 402 L 684 411 L 684 412 L 692 420 L 693 420 L 699 426 L 700 426 L 701 428 L 702 428 L 707 432 L 709 433 L 711 433 L 719 437 L 719 426 L 717 424 L 715 420 L 709 414 L 709 413 L 703 405 L 701 400 L 697 396 L 697 395 L 696 395 L 688 388 L 682 385 L 680 385 L 677 383 L 674 383 L 673 382 L 670 382 L 669 381 L 660 381 L 659 380 L 652 379 L 649 377 L 649 372 L 648 371 L 642 374 L 639 374 L 637 373 L 625 362 L 624 362 L 614 352 L 614 351 L 610 347 L 610 346 L 605 340 L 603 336 L 604 334 L 606 334 L 608 336 L 613 338 L 616 341 L 621 351 L 622 351 L 624 353 L 625 352 L 625 349 L 626 347 L 629 344 L 633 344 L 639 351 L 642 357 L 642 360 L 643 361 L 643 365 L 645 365 L 649 362 L 654 362 L 658 365 L 661 371 L 663 371 L 671 367 L 675 367 L 676 368 L 676 375 L 679 375 L 680 374 L 682 374 L 690 370 L 695 370 L 696 371 L 696 373 L 694 376 L 694 377 L 695 377 L 699 375 L 704 371 L 705 371 L 709 367 L 710 362 L 706 354 L 698 351 L 695 348 L 692 339 L 688 335 L 686 335 L 685 334 L 681 334 L 675 331 L 673 329 L 672 329 L 654 312 L 654 311 L 652 309 L 650 305 L 650 303 L 649 302 L 649 299 L 647 295 L 647 292 L 646 291 L 645 286 L 643 282 L 636 275 L 636 274 L 633 271 L 629 263 L 629 260 L 628 259 L 628 257 L 627 256 L 627 254 L 625 251 L 625 249 L 624 247 L 622 245 L 619 239 L 614 234 L 614 233 L 603 222 L 602 222 L 599 219 L 591 215 L 589 215 L 588 214 L 586 214 L 585 213 L 583 213 L 579 211 L 576 211 L 574 209 L 571 210 L 568 208 L 569 206 L 568 205 L 566 205 L 565 207 L 563 208 L 561 206 L 562 204 L 561 202 L 559 202 L 559 205 L 558 206 L 549 206 L 546 206 L 546 204 L 545 203 L 546 200 L 548 200 L 549 199 L 549 198 L 547 196 L 546 196 L 545 197 L 545 199 L 546 200 L 545 203 L 543 203 L 542 204 L 542 206 L 543 207 L 545 207 L 546 206 L 549 206 L 549 208 L 550 209 L 555 208 L 557 212 L 558 212 L 560 210 L 562 210 L 563 211 L 562 213 L 563 214 L 565 214 L 567 212 L 568 212 L 570 214 L 570 216 L 571 217 L 573 215 L 575 215 L 576 216 L 581 217 L 587 220 L 595 228 L 599 236 L 598 238 L 596 238 L 592 234 L 591 234 L 586 230 L 581 230 L 580 231 L 580 233 L 586 239 L 586 240 L 594 251 L 593 253 L 599 280 L 601 280 L 602 281 L 603 281 L 609 287 L 609 288 L 612 291 L 612 293 L 611 294 L 607 294 L 606 295 L 603 295 L 602 294 L 599 294 L 598 293 L 597 293 L 596 292 L 596 291 L 595 290 L 595 285 L 596 284 L 596 283 L 599 280 L 593 253 L 591 253 L 588 250 L 587 250 L 585 248 L 579 245 L 577 245 L 565 239 L 563 239 L 560 237 L 558 237 L 555 235 L 553 235 L 548 232 L 546 232 L 543 230 L 541 230 L 536 227 L 534 227 L 524 222 L 523 220 L 521 219 L 519 219 L 517 217 L 515 217 L 513 216 L 508 212 L 505 212 L 505 214 L 506 216 L 513 223 L 513 224 L 514 224 L 518 228 L 519 228 L 524 233 L 532 237 L 534 239 L 537 240 L 540 243 L 541 243 L 543 245 L 543 248 L 556 259 L 555 261 L 549 259 L 548 258 L 548 256 L 546 257 L 543 257 L 529 250 L 524 250 L 523 249 L 519 249 L 515 247 L 509 247 L 508 246 L 502 246 L 501 245 L 491 245 L 490 246 L 481 247 L 477 249 L 474 249 L 473 250 L 466 251 L 457 256 L 460 254 L 461 254 L 462 256 L 464 255 L 471 255 L 472 254 L 497 254 L 499 256 L 498 258 L 488 258 L 484 260 L 478 260 L 477 261 L 474 261 L 470 263 L 463 264 L 463 265 L 461 267 L 459 267 L 452 271 L 450 271 L 448 273 L 445 274 L 443 276 L 442 276 L 440 278 L 436 280 L 436 281 L 437 280 L 441 280 L 442 279 L 446 279 L 447 278 L 452 278 L 453 277 L 464 276 L 465 278 L 463 280 L 461 280 L 461 281 L 459 283 L 455 285 L 451 285 L 450 284 L 450 282 L 449 283 L 443 283 L 440 285 L 438 284 L 436 284 L 429 289 L 420 291 L 415 294 L 410 295 L 406 298 L 404 298 L 401 300 L 399 300 L 395 304 L 389 307 L 384 311 L 381 310 L 380 312 L 383 312 L 387 310 L 390 310 L 391 309 L 394 309 L 398 307 L 401 307 L 402 306 L 405 306 L 407 305 L 408 306 L 408 308 L 407 309 L 408 312 L 407 313 L 405 313 L 400 317 L 406 320 L 411 320 L 413 318 L 414 318 L 415 317 L 416 313 L 415 312 L 415 311 L 420 306 L 421 306 L 424 303 L 425 303 L 429 299 L 431 299 L 432 298 L 440 298 L 441 299 L 441 300 L 438 303 L 437 303 L 433 307 L 432 307 L 429 310 L 428 310 L 427 311 L 426 311 L 425 312 L 423 312 L 422 313 L 416 313 L 415 317 L 418 317 L 419 318 L 419 319 L 418 320 L 417 320 L 414 323 L 413 323 L 410 326 L 409 326 L 405 330 L 404 330 L 403 331 L 401 331 L 400 332 L 400 333 L 398 335 L 397 335 L 396 334 L 396 333 L 398 331 L 398 330 L 400 328 L 400 327 L 402 325 L 402 324 L 406 320 L 400 317 L 383 321 L 380 323 L 378 323 L 376 325 L 372 327 L 370 327 L 368 329 L 364 331 L 362 331 L 360 333 L 361 332 L 363 332 L 364 331 L 366 331 L 367 330 L 369 330 L 370 329 L 372 329 L 373 328 L 375 328 L 376 327 L 378 327 L 382 325 L 385 325 L 389 323 L 390 323 L 391 325 L 375 340 L 373 341 L 370 341 L 369 342 L 364 342 L 363 343 L 361 343 L 357 345 L 354 345 L 355 346 L 361 346 L 362 345 L 366 345 L 367 346 L 367 347 L 364 350 L 362 350 L 361 349 L 362 350 L 362 351 L 359 354 L 357 354 L 352 349 L 352 348 L 353 347 L 354 347 L 355 346 L 354 345 L 350 347 L 348 347 L 347 346 L 347 345 L 349 344 L 348 343 L 347 345 L 344 345 L 341 343 L 342 341 L 341 340 L 341 342 L 339 343 L 335 340 L 336 338 L 334 338 L 332 339 L 329 337 L 330 335 L 325 335 L 322 332 L 315 329 L 311 326 L 309 326 L 306 323 L 306 319 L 307 318 L 307 315 L 308 314 L 308 310 L 309 309 L 309 307 L 311 305 L 311 303 L 315 299 L 317 299 L 318 300 L 318 302 L 319 302 L 321 300 L 319 299 L 319 297 L 321 296 L 327 289 L 328 289 L 329 291 L 332 291 L 333 290 L 330 287 L 330 286 L 331 285 L 334 285 L 335 284 L 335 280 L 338 277 L 338 274 L 339 273 L 343 273 L 344 274 L 347 274 L 348 273 L 350 273 L 351 274 L 351 276 L 353 276 L 354 275 L 353 274 L 354 272 L 363 272 L 365 270 L 374 268 L 377 266 L 379 266 L 382 264 L 384 264 L 386 262 L 400 255 L 402 255 L 403 254 L 423 254 L 424 253 L 429 253 L 430 252 L 433 252 L 434 251 L 439 250 L 442 248 L 444 248 L 446 246 L 449 245 L 451 243 L 455 241 L 458 238 L 459 238 L 469 229 L 472 230 L 471 229 L 471 227 L 472 226 L 473 226 L 496 204 L 499 203 L 499 202 L 502 199 L 503 199 L 506 196 L 507 196 L 510 193 L 511 193 L 513 191 L 513 189 L 516 183 L 516 180 L 518 177 L 518 174 L 520 172 L 520 170 L 525 160 L 525 154 L 527 152 L 528 152 L 528 151 L 525 147 L 525 143 L 522 140 L 520 142 L 517 148 L 517 150 L 515 153 L 513 153 L 512 152 L 512 148 L 514 146 L 513 141 L 515 139 L 517 140 L 517 139 L 515 139 L 514 138 L 514 135 L 513 134 L 513 132 L 508 126 L 506 126 L 505 125 L 503 128 L 503 131 L 502 132 L 502 137 L 499 140 L 500 141 L 500 147 L 499 148 L 499 151 L 497 155 L 495 154 L 495 150 L 494 149 L 494 139 L 493 138 L 493 135 L 492 134 L 492 132 L 490 130 L 490 128 L 491 127 L 488 127 L 484 124 L 482 124 L 481 125 L 481 127 L 482 129 L 478 132 L 479 134 L 481 134 L 482 135 L 482 143 L 481 144 L 481 147 L 480 148 L 480 157 L 479 158 L 478 158 L 476 156 L 476 155 L 474 153 L 472 149 L 469 146 L 469 144 L 470 143 L 469 142 L 465 144 L 463 142 L 463 140 L 462 139 L 460 140 L 460 142 L 459 144 L 461 144 L 465 148 L 468 154 L 468 156 L 469 157 L 469 170 L 470 171 L 471 176 L 479 186 L 479 188 L 478 189 L 468 194 L 466 194 L 463 196 L 461 196 L 458 198 L 456 198 L 448 202 L 443 203 L 433 208 L 431 208 L 430 209 L 427 209 L 426 210 L 419 210 L 418 211 L 412 211 L 407 215 L 405 215 L 404 214 L 404 210 L 406 208 L 407 205 L 402 207 L 397 203 L 396 203 L 394 205 L 392 205 L 389 207 L 387 207 L 383 209 L 379 209 L 377 206 L 356 206 L 355 207 L 350 207 L 349 206 L 336 206 L 335 207 L 330 208 L 327 210 L 325 210 L 323 212 L 319 214 L 316 211 L 316 208 L 333 191 L 335 190 L 335 186 L 336 185 L 338 185 L 341 188 L 342 187 L 344 187 L 345 185 L 344 183 L 346 182 L 347 180 L 348 180 L 349 181 L 349 183 L 352 184 L 354 182 L 352 179 L 350 179 L 348 180 L 347 179 L 347 177 L 345 176 L 344 177 L 342 177 L 341 177 L 342 178 L 342 181 L 341 182 L 338 182 L 336 180 L 335 180 L 334 181 L 333 181 L 330 184 L 329 184 L 328 183 L 328 182 L 327 182 L 324 185 L 323 185 L 322 186 L 319 186 L 317 184 L 317 182 L 316 181 L 314 183 L 311 183 L 310 184 L 309 184 L 308 185 L 306 185 L 305 184 L 305 183 L 304 182 L 304 178 L 301 177 L 301 180 L 298 183 L 296 183 L 293 180 L 293 179 L 292 178 L 292 176 L 294 174 L 295 174 L 296 175 L 298 175 L 299 176 L 300 176 L 301 177 L 304 178 L 305 177 L 307 177 L 308 178 L 322 178 L 323 177 L 329 177 L 330 176 L 333 176 L 334 177 L 334 178 L 335 179 L 335 180 L 336 180 L 336 179 L 337 178 L 339 178 L 340 177 L 341 177 L 342 177 L 341 175 L 344 173 L 346 174 L 349 174 L 351 173 L 351 173 L 350 172 L 350 171 L 349 170 L 349 169 L 350 168 L 351 168 L 352 167 L 353 167 L 355 169 L 355 171 L 353 173 L 351 173 L 351 173 L 352 174 L 352 176 L 353 177 L 355 177 L 356 176 L 356 173 L 355 171 L 356 170 L 358 170 L 359 169 L 361 170 L 361 172 L 362 173 L 362 174 L 361 175 L 360 175 L 359 176 L 359 179 L 360 179 L 361 180 L 363 178 L 363 176 L 362 175 L 362 174 L 363 173 L 365 173 L 366 172 L 367 172 L 368 173 L 368 175 L 369 176 L 369 177 L 369 177 L 370 176 L 371 176 L 372 175 L 373 175 L 374 176 L 374 177 L 375 178 L 375 179 L 373 181 L 371 181 L 370 180 L 370 179 L 369 178 L 369 177 L 369 177 L 368 178 L 366 178 L 365 179 L 365 181 L 366 182 L 369 182 L 370 181 L 371 181 L 372 182 L 372 184 L 373 185 L 375 185 L 376 184 L 376 180 L 379 177 L 381 178 L 381 180 L 382 181 L 382 182 L 381 183 L 380 183 L 379 184 L 379 187 L 380 187 L 381 188 L 383 186 L 383 185 L 382 184 L 382 182 L 383 181 L 385 181 L 386 180 L 388 181 L 388 183 L 389 184 L 388 186 L 387 186 L 386 187 L 386 190 L 389 190 L 389 189 L 390 188 L 388 186 L 389 184 L 391 184 L 393 182 L 392 181 L 392 180 L 389 180 L 388 181 L 386 180 L 386 178 L 385 177 L 382 177 L 381 178 L 379 177 L 379 175 L 378 174 L 378 173 L 379 172 L 380 172 L 382 170 L 382 169 L 381 168 L 381 166 L 382 165 L 383 165 L 385 163 L 385 162 L 384 161 L 384 160 L 386 158 L 388 158 L 389 159 L 389 160 L 390 161 L 390 162 L 389 163 L 388 163 L 387 164 L 387 167 L 388 168 L 388 169 L 387 170 L 385 170 L 384 171 L 384 173 L 385 174 L 388 174 L 389 173 L 391 174 L 391 176 L 392 177 L 394 177 L 395 176 L 395 173 L 392 173 L 391 174 L 389 173 L 389 172 L 388 171 L 388 169 L 389 168 L 390 168 L 391 167 L 393 168 L 394 169 L 394 170 L 397 170 L 398 169 L 400 170 L 400 172 L 401 173 L 403 173 L 405 171 L 404 170 L 404 169 L 401 169 L 400 170 L 398 169 L 398 167 L 397 166 L 397 165 L 398 164 L 400 164 L 401 163 L 402 163 L 403 164 L 403 165 L 404 166 L 406 166 L 407 165 L 407 163 L 406 162 L 406 161 L 407 160 L 409 160 L 410 159 L 411 159 L 412 160 L 412 161 L 413 162 L 413 163 L 411 165 L 410 165 L 409 166 L 409 167 L 411 169 L 410 171 L 408 171 L 407 172 L 407 175 L 408 176 L 407 178 L 405 178 L 404 179 L 402 178 L 402 177 L 400 175 L 399 175 L 397 177 L 397 178 L 398 179 L 398 181 L 397 182 L 396 182 L 395 183 L 395 185 L 396 186 L 398 186 L 399 185 L 399 183 L 398 182 L 398 181 L 399 180 L 400 180 L 402 178 L 404 179 L 404 181 L 406 183 L 405 185 L 402 185 L 402 188 L 403 189 L 404 189 L 406 187 L 405 186 L 405 185 L 406 183 L 407 182 L 408 182 L 409 181 L 411 182 L 411 184 L 412 185 L 414 185 L 415 184 L 415 182 L 414 181 L 412 181 L 411 182 L 409 181 L 409 180 L 407 178 L 408 176 L 410 176 L 411 175 L 411 172 L 410 171 L 411 169 L 413 169 L 414 168 L 416 169 L 416 170 L 418 172 L 417 174 L 415 174 L 414 175 L 414 178 L 415 178 L 416 179 L 418 177 L 420 178 L 420 180 L 421 181 L 423 181 L 425 179 L 423 177 L 421 177 L 420 178 L 418 177 L 418 175 L 417 174 L 418 172 L 419 172 L 421 170 L 423 171 L 423 173 L 424 174 L 426 174 L 427 173 L 427 171 L 426 170 L 427 168 L 429 168 L 430 167 L 432 168 L 432 169 L 433 170 L 433 173 L 431 173 L 430 174 L 430 176 L 431 177 L 433 177 L 434 176 L 434 174 L 433 173 L 433 170 L 436 170 L 437 169 L 439 170 L 439 172 L 440 173 L 442 173 L 443 172 L 446 172 L 446 175 L 447 175 L 448 176 L 450 174 L 453 175 L 453 178 L 456 178 L 457 177 L 457 176 L 455 174 L 454 174 L 453 175 L 450 174 L 450 173 L 449 172 L 446 172 L 443 172 L 443 170 L 442 169 L 440 169 L 439 170 L 437 169 L 437 168 L 435 166 L 437 164 L 438 163 L 439 163 L 439 160 L 440 157 L 441 156 L 442 156 L 442 154 L 441 153 L 439 153 L 438 154 L 438 156 L 439 156 L 440 157 L 439 160 L 436 160 L 435 161 L 435 162 L 437 164 L 435 166 L 434 166 L 432 168 L 430 167 L 430 165 L 428 163 L 429 161 L 431 161 L 433 159 L 433 158 L 432 157 L 429 157 L 429 158 L 428 159 L 429 160 L 429 161 L 428 163 L 427 164 L 426 164 L 426 167 L 427 168 L 426 170 L 424 170 L 423 171 L 421 170 L 421 169 L 420 168 L 420 166 L 421 165 L 422 165 L 423 164 L 423 162 L 422 161 L 420 161 L 419 162 L 419 164 L 420 165 L 420 166 L 419 167 L 418 167 L 416 169 L 414 168 L 414 166 L 413 165 L 413 164 L 414 163 L 415 163 L 417 161 L 417 159 L 416 158 L 417 156 L 418 156 L 419 155 L 421 156 L 422 157 L 422 158 L 425 158 L 426 157 L 426 155 L 425 154 L 423 154 L 421 156 L 419 155 L 419 152 L 418 151 L 416 151 L 415 152 L 415 155 L 416 155 L 417 156 L 416 158 L 413 158 L 412 159 L 411 159 L 410 158 L 410 156 L 409 155 L 409 154 L 410 153 L 411 153 L 413 151 L 413 150 L 412 149 L 409 149 L 408 150 L 408 152 L 409 153 L 409 154 L 408 155 L 407 155 L 405 157 L 405 158 L 406 159 L 406 161 L 405 162 L 404 162 L 403 163 L 402 163 L 401 162 L 401 161 L 400 160 L 400 158 L 401 157 L 402 157 L 403 156 L 403 154 L 402 153 L 398 153 L 396 151 L 396 150 L 393 150 L 392 151 L 390 150 L 390 149 L 388 147 L 387 147 L 386 148 L 386 151 L 389 151 L 390 150 L 392 151 L 392 153 L 393 154 L 396 154 L 397 153 L 398 153 L 399 154 L 399 156 L 400 157 L 400 158 L 399 159 L 398 159 L 396 161 L 396 163 L 397 164 L 397 165 L 396 166 L 395 166 L 393 168 L 391 167 L 391 164 L 390 163 L 390 162 L 391 161 L 393 161 L 394 160 L 394 158 L 393 157 L 390 157 L 389 158 L 388 158 L 387 157 L 387 155 L 386 154 L 384 154 L 383 155 L 381 154 L 381 153 L 379 151 L 378 151 L 376 153 L 376 154 L 378 156 L 379 156 L 381 154 L 383 155 L 383 159 L 381 161 L 379 161 L 378 160 L 378 159 L 377 158 L 374 158 L 374 159 L 373 160 L 371 159 L 371 156 L 370 155 L 371 153 L 372 153 L 374 151 L 374 150 L 373 149 L 370 149 L 367 149 L 367 147 L 366 146 L 364 146 L 363 147 L 363 149 L 364 150 L 366 150 L 367 149 L 370 149 L 370 152 L 371 153 L 370 155 L 368 155 L 367 156 L 367 159 L 371 159 L 373 160 L 374 161 L 374 162 L 377 162 L 378 161 L 379 161 L 380 162 L 380 164 L 381 165 L 381 166 L 380 167 L 378 167 L 377 168 L 376 168 L 375 167 L 375 165 L 374 165 L 373 164 L 372 165 L 371 165 L 369 164 L 368 163 L 368 162 L 365 162 L 364 163 L 364 165 L 365 166 L 368 166 L 368 165 L 369 164 L 371 165 L 371 168 L 372 169 L 374 169 L 375 168 L 376 168 L 377 169 L 377 171 L 378 172 L 378 173 L 377 174 L 376 174 L 375 175 L 374 175 L 373 174 L 373 173 L 371 171 L 369 171 L 368 172 L 367 172 L 366 171 L 366 170 L 365 169 L 362 169 L 361 170 L 359 169 L 359 167 L 358 166 L 354 166 L 351 163 L 351 162 L 354 160 L 356 160 L 359 164 L 362 162 L 361 159 L 362 157 L 363 156 L 364 156 L 364 153 L 360 153 L 358 152 L 358 151 L 357 150 L 354 150 L 354 153 L 355 154 L 356 154 L 358 152 L 360 153 L 360 156 L 361 156 L 362 157 L 361 159 L 358 159 L 356 160 L 355 159 L 355 157 L 351 157 L 349 158 L 348 157 L 348 155 L 347 154 L 345 154 L 349 159 L 349 163 L 343 170 L 337 170 L 335 169 L 331 165 L 331 164 L 335 160 L 336 160 L 336 159 L 333 159 L 332 160 L 330 160 L 326 162 L 324 162 L 321 160 L 309 160 L 308 159 L 293 159 L 292 158 L 292 156 L 294 154 L 297 153 L 298 151 L 296 151 L 288 147 L 283 143 L 277 140 L 275 140 L 274 139 L 271 139 L 270 138 L 267 138 L 266 137 L 259 137 L 258 136 L 257 137 L 257 142 L 258 143 L 258 145 L 257 147 L 251 153 L 249 154 L 244 154 L 244 156 L 245 158 L 242 162 L 242 163 L 239 166 L 237 170 L 234 173 L 232 173 L 229 171 L 227 171 L 228 173 L 233 178 L 232 181 L 229 185 L 229 188 L 228 189 L 221 189 L 220 188 L 218 188 L 214 186 L 207 186 L 205 185 L 208 188 L 212 190 L 217 191 L 218 192 L 218 193 L 215 196 L 215 197 L 210 201 L 208 202 L 206 202 L 200 205 L 195 209 L 194 209 L 188 215 L 188 216 L 194 223 L 195 223 L 196 222 L 198 222 L 199 221 L 202 221 L 203 220 L 205 220 L 206 219 L 209 219 L 210 218 L 215 218 L 216 217 L 219 217 L 220 218 L 224 218 L 225 219 L 226 219 L 227 220 L 228 220 L 234 226 L 234 231 L 233 232 L 233 233 L 239 238 L 241 236 L 242 236 L 243 235 L 244 235 L 246 233 L 246 232 L 248 230 L 249 230 L 250 229 L 252 229 L 253 228 L 255 228 L 256 227 L 258 227 L 259 226 L 260 226 L 261 225 L 270 225 L 271 226 L 277 226 L 278 227 L 284 227 L 285 228 L 291 228 L 292 229 L 296 229 L 297 230 L 298 230 L 301 233 L 301 239 L 298 242 L 293 242 L 292 243 L 290 243 L 289 244 L 287 244 L 286 245 L 285 245 L 284 246 L 283 246 L 282 247 L 281 247 L 280 248 L 279 248 L 278 249 L 277 249 L 275 251 L 274 251 L 272 253 L 270 253 L 269 254 L 265 254 L 264 255 L 263 255 L 261 257 L 260 257 L 256 261 L 255 261 L 250 266 L 250 267 L 248 269 L 248 270 L 247 271 L 247 273 L 246 274 L 238 274 L 235 271 L 235 251 L 238 248 L 241 248 L 242 247 L 245 247 L 245 246 L 244 246 L 243 245 L 240 245 L 238 243 L 238 241 L 239 240 L 239 238 L 233 233 L 228 238 L 229 239 L 229 242 L 228 243 L 228 245 L 227 246 L 227 247 L 226 248 L 226 249 L 224 251 L 213 251 L 214 252 L 219 252 L 220 253 L 221 253 L 223 255 L 223 259 L 222 260 L 222 262 L 221 263 L 221 264 L 219 266 L 219 267 L 218 268 L 218 270 L 217 271 L 217 272 L 216 273 L 216 274 L 215 275 L 215 276 L 213 278 L 219 289 L 220 289 L 221 290 L 221 291 L 226 291 L 228 293 L 229 293 L 232 296 L 232 297 L 233 298 L 233 299 L 234 300 L 234 301 L 235 302 L 235 304 L 236 305 L 236 310 L 235 311 L 235 312 L 237 314 L 238 314 L 240 316 L 240 318 L 241 319 L 241 320 L 239 322 L 235 322 L 234 321 L 231 321 L 230 320 L 227 320 L 226 319 L 225 319 L 224 318 L 224 319 L 225 319 L 230 324 L 230 329 L 233 329 L 234 330 L 235 330 L 238 333 L 238 334 L 239 335 L 239 339 L 246 339 L 247 340 L 247 342 L 246 343 L 237 343 L 236 342 L 229 342 L 228 341 L 227 341 L 226 340 L 226 338 L 227 337 L 228 337 L 227 336 L 225 336 L 224 335 L 224 334 L 223 333 L 221 333 L 220 334 L 219 334 L 217 336 L 216 336 L 215 337 L 214 337 L 214 339 L 215 340 L 215 341 L 216 342 L 216 343 L 217 344 L 217 346 L 218 347 L 218 352 L 219 353 L 223 357 L 225 355 L 225 353 L 227 351 L 229 351 L 239 361 L 239 362 L 240 363 L 241 363 L 242 364 L 242 365 L 241 366 L 240 366 L 239 365 L 233 365 L 232 364 L 230 364 L 229 363 L 228 363 L 223 358 L 223 357 L 219 353 L 219 371 L 217 373 L 215 373 L 214 374 L 214 376 L 213 377 L 213 378 L 212 379 L 212 380 L 210 382 L 209 382 L 208 383 L 201 383 L 200 382 L 199 382 L 197 380 L 196 380 L 195 379 L 193 379 L 192 378 L 185 378 L 184 379 L 184 381 L 188 385 L 188 386 L 190 388 L 190 389 L 191 390 L 191 392 L 193 394 L 193 395 L 197 399 L 197 402 L 196 403 L 191 403 L 190 402 L 188 402 L 187 401 L 185 401 L 184 400 L 183 400 L 182 399 L 180 399 L 179 398 L 178 398 L 177 397 L 175 397 L 174 396 L 172 396 L 166 402 L 158 402 L 157 403 L 156 403 L 155 404 L 154 404 L 151 407 L 149 407 L 142 414 L 146 416 L 150 412 L 157 412 L 161 416 L 163 416 L 166 419 L 166 422 L 167 423 L 167 427 L 166 428 L 166 431 L 165 432 L 165 433 L 164 434 L 164 435 L 163 436 L 160 436 L 159 435 L 157 435 L 156 434 L 155 434 L 153 432 L 150 432 L 149 431 L 147 431 L 146 430 L 145 430 L 141 426 L 133 428 L 133 432 L 132 433 L 132 434 L 131 435 L 130 435 L 129 434 L 128 434 L 126 432 L 126 429 L 126 430 L 124 432 L 123 432 L 122 431 L 121 431 L 119 429 L 115 429 L 113 427 L 111 427 L 110 426 L 109 426 L 106 423 L 105 423 L 103 421 L 103 420 L 102 419 L 101 419 L 98 416 L 97 416 L 70 389 L 70 388 L 71 387 L 76 387 L 77 388 L 78 387 L 79 387 L 87 395 L 87 396 L 88 397 L 89 397 L 88 396 L 88 395 L 86 393 L 86 392 L 85 391 L 85 390 L 84 389 L 84 388 L 83 387 L 83 386 L 82 385 L 82 383 L 81 382 L 81 380 L 80 379 L 80 377 L 79 376 L 79 373 L 78 372 L 78 370 L 77 369 L 77 367 L 78 366 L 74 356 L 73 356 L 66 349 L 66 348 L 67 347 L 67 346 L 66 347 L 65 347 L 60 342 L 60 341 L 57 338 L 57 337 L 56 336 L 56 334 L 55 334 L 53 332 L 53 331 L 51 329 L 51 328 L 50 327 L 50 326 L 49 325 L 49 324 L 47 322 L 47 321 L 46 320 L 46 319 L 45 318 L 45 317 L 44 316 L 44 315 L 43 314 L 43 313 L 42 312 L 42 311 L 41 310 L 41 309 L 40 308 L 40 306 L 39 305 L 39 303 L 38 302 L 38 298 L 39 297 L 40 297 L 39 297 L 38 296 L 38 294 L 37 293 L 37 284 L 38 283 L 38 282 L 39 281 L 40 281 L 39 280 L 39 279 L 38 278 L 38 268 L 39 267 L 39 261 L 42 258 L 40 256 L 40 254 L 42 252 L 44 252 L 45 251 L 44 251 L 42 249 L 42 246 L 43 245 L 44 245 L 45 246 L 46 246 L 47 245 L 47 244 L 46 243 L 45 243 L 44 242 L 44 239 L 45 238 L 46 238 L 47 239 L 49 239 L 50 238 L 49 237 L 49 236 L 48 236 L 48 237 L 47 238 L 46 238 L 45 237 L 45 236 L 46 235 L 46 233 L 47 232 L 47 230 L 48 229 L 48 228 L 49 227 L 49 226 L 50 225 L 50 223 L 51 222 L 51 221 L 53 219 L 57 219 L 58 218 L 57 217 L 57 216 L 56 216 L 55 215 L 55 214 L 57 212 L 58 212 L 59 213 L 61 211 L 60 211 L 59 210 L 59 207 L 60 206 L 62 206 L 63 205 L 63 202 L 64 201 L 64 200 L 65 199 L 66 199 L 66 198 L 67 197 L 67 196 L 70 193 L 71 193 L 72 194 L 72 195 L 73 195 L 74 196 L 76 194 L 74 192 L 73 193 L 72 193 L 71 192 L 71 191 L 74 188 L 78 188 L 78 183 L 80 181 L 81 181 L 81 180 L 86 175 L 87 175 L 88 176 L 88 177 L 89 177 L 89 176 L 88 176 L 87 175 L 87 174 L 89 172 L 90 172 L 97 165 L 99 165 L 100 166 L 100 167 L 101 167 L 102 166 L 100 164 L 100 163 L 102 161 L 103 161 L 105 159 L 106 159 L 108 157 L 109 157 L 110 156 L 114 156 L 115 155 L 115 154 L 118 151 L 119 151 L 120 152 L 123 152 L 124 151 L 124 149 L 125 148 L 126 148 L 127 147 L 128 147 L 129 148 L 129 149 L 126 152 L 125 152 L 124 151 L 123 152 L 124 153 L 124 154 L 123 155 L 123 156 L 122 157 L 120 157 L 119 156 L 119 159 L 121 159 L 122 158 L 124 158 L 125 158 L 125 157 L 127 155 L 130 155 L 131 154 L 131 153 L 132 152 L 133 152 L 134 151 L 137 151 L 138 152 L 138 153 L 137 154 L 136 154 L 135 155 L 134 155 L 130 159 L 126 159 L 125 158 L 124 158 L 125 159 L 125 163 L 126 162 L 127 162 L 128 161 L 129 161 L 130 162 L 130 163 L 127 166 L 125 166 L 124 165 L 123 165 L 122 166 L 122 168 L 124 168 L 125 169 L 125 170 L 123 172 L 120 172 L 119 173 L 119 175 L 116 178 L 114 178 L 113 177 L 113 174 L 116 171 L 116 169 L 119 166 L 119 165 L 117 163 L 116 163 L 116 165 L 117 166 L 117 167 L 115 169 L 114 169 L 113 170 L 112 170 L 110 172 L 110 173 L 108 175 L 107 175 L 106 174 L 104 174 L 104 176 L 106 178 L 106 180 L 105 181 L 104 181 L 103 180 L 102 180 L 101 181 L 101 183 L 102 183 L 103 184 L 103 186 L 102 187 L 99 187 L 98 188 L 98 189 L 99 190 L 100 190 L 101 189 L 102 189 L 104 191 L 104 192 L 105 193 L 106 193 L 107 192 L 108 192 L 108 191 L 107 190 L 107 189 L 110 186 L 110 185 L 111 184 L 111 183 L 112 182 L 115 182 L 116 183 L 116 185 L 115 186 L 114 186 L 114 188 L 115 189 L 116 189 L 117 188 L 119 188 L 120 189 L 120 190 L 122 192 L 123 191 L 124 191 L 124 188 L 127 185 L 128 185 L 130 187 L 130 188 L 133 188 L 133 187 L 134 186 L 135 186 L 136 187 L 136 190 L 137 190 L 138 191 L 139 191 L 140 192 L 140 196 L 139 197 L 138 197 L 137 196 L 137 194 L 134 194 L 134 197 L 138 197 L 139 198 L 139 199 L 138 200 L 138 203 L 137 204 L 135 203 L 135 202 L 133 200 L 132 200 L 131 201 L 131 203 L 132 204 L 134 204 L 135 203 L 137 204 L 137 205 L 135 207 L 135 208 L 134 209 L 133 209 L 131 207 L 129 207 L 128 208 L 128 210 L 129 211 L 130 211 L 131 212 L 131 213 L 130 214 L 129 214 L 128 213 L 127 213 L 125 215 L 125 216 L 126 217 L 127 217 L 128 218 L 128 219 L 127 220 L 124 220 L 122 222 L 123 223 L 123 224 L 125 224 L 126 225 L 126 226 L 125 227 L 120 227 L 120 230 L 121 231 L 122 231 L 123 232 L 123 233 L 122 234 L 121 234 L 120 233 L 119 233 L 118 234 L 117 234 L 115 233 L 115 232 L 114 231 L 112 231 L 111 232 L 111 234 L 112 235 L 113 235 L 115 233 L 117 234 L 117 237 L 118 237 L 119 238 L 120 238 L 121 239 L 121 240 L 120 241 L 118 241 L 117 240 L 115 240 L 115 241 L 114 242 L 112 241 L 112 238 L 108 238 L 108 241 L 109 241 L 110 242 L 108 244 L 107 244 L 105 246 L 105 247 L 106 248 L 109 248 L 109 245 L 108 244 L 110 242 L 111 241 L 112 241 L 114 242 L 114 243 L 115 244 L 117 244 L 118 245 L 118 246 L 117 247 L 113 247 L 112 248 L 112 250 L 113 251 L 114 251 L 115 252 L 115 253 L 114 254 L 113 254 L 112 253 L 111 253 L 109 255 L 107 253 L 107 252 L 106 251 L 103 251 L 103 254 L 104 255 L 105 255 L 107 253 L 109 255 L 109 256 L 111 258 L 112 258 L 113 259 L 113 261 L 112 262 L 111 262 L 109 260 L 108 260 L 107 261 L 107 264 L 111 264 L 112 265 L 112 266 L 111 267 L 111 269 L 110 270 L 109 270 L 108 269 L 108 268 L 107 267 L 105 267 L 104 268 L 104 270 L 105 271 L 107 271 L 108 270 L 109 270 L 110 271 L 110 272 L 109 273 L 109 275 L 108 276 L 108 277 L 107 278 L 107 282 L 105 284 L 105 289 L 104 290 L 102 290 L 100 288 L 100 286 L 103 283 L 103 282 L 100 279 L 100 278 L 101 277 L 102 277 L 103 278 L 104 277 L 105 277 L 105 274 L 101 274 L 98 271 L 97 271 L 95 269 L 95 268 L 97 267 L 98 268 L 101 268 L 101 265 L 100 265 L 99 264 L 97 266 L 97 267 L 95 268 L 94 267 L 94 262 L 93 261 L 93 260 L 94 259 L 96 259 L 97 258 L 97 256 L 96 255 L 94 255 L 93 254 L 93 250 L 94 249 L 95 249 L 96 250 L 96 252 L 99 252 L 100 251 L 100 249 L 99 248 L 100 246 L 101 246 L 103 244 L 102 243 L 102 242 L 99 242 L 99 245 L 100 246 L 99 248 L 97 248 L 96 249 L 95 249 L 94 248 L 94 245 L 96 243 L 96 239 L 97 238 L 100 238 L 101 239 L 104 239 L 105 238 L 105 235 L 104 234 L 104 233 L 105 232 L 107 232 L 108 231 L 108 229 L 107 229 L 106 228 L 105 228 L 104 229 L 104 231 L 103 232 L 102 232 L 100 230 L 100 229 L 101 228 L 101 225 L 103 223 L 104 223 L 105 222 L 106 222 L 107 223 L 107 225 L 110 225 L 110 222 L 107 222 L 106 221 L 106 220 L 107 219 L 106 220 L 104 220 L 103 219 L 101 219 L 100 218 L 100 215 L 101 214 L 102 214 L 104 216 L 105 216 L 106 215 L 106 213 L 105 212 L 104 212 L 103 211 L 103 209 L 102 209 L 101 210 L 99 210 L 98 209 L 98 208 L 100 206 L 101 206 L 102 207 L 102 209 L 103 209 L 104 208 L 106 208 L 107 209 L 108 209 L 109 208 L 109 206 L 106 206 L 105 207 L 104 207 L 103 206 L 103 204 L 102 203 L 97 203 L 94 200 L 93 201 L 93 205 L 91 207 L 90 207 L 90 210 L 91 211 L 91 213 L 90 214 L 87 214 L 86 215 L 85 215 L 83 213 L 83 212 L 82 211 L 81 211 L 81 212 L 80 213 L 81 214 L 81 217 L 80 218 L 78 218 L 78 220 L 80 222 L 80 223 L 82 223 L 83 224 L 83 226 L 82 227 L 82 230 L 83 230 L 84 231 L 84 234 L 83 235 L 82 235 L 81 234 L 80 234 L 79 235 L 79 236 L 80 237 L 82 237 L 83 238 L 83 241 L 82 242 L 80 242 L 80 242 L 81 242 L 82 243 L 82 244 L 81 245 L 81 247 L 79 249 L 78 249 L 75 246 L 75 244 L 76 243 L 79 243 L 80 242 L 80 242 L 79 241 L 78 241 L 77 240 L 75 242 L 74 242 L 73 241 L 73 240 L 72 239 L 72 238 L 71 238 L 70 239 L 70 240 L 71 241 L 72 241 L 73 242 L 73 244 L 71 246 L 70 246 L 69 245 L 67 245 L 67 247 L 70 247 L 71 248 L 71 249 L 68 252 L 67 252 L 66 251 L 65 251 L 64 252 L 64 253 L 65 254 L 69 254 L 70 255 L 70 259 L 68 261 L 68 264 L 67 265 L 67 266 L 65 268 L 65 270 L 66 271 L 66 273 L 65 274 L 63 274 L 63 277 L 65 277 L 66 278 L 66 289 L 64 291 L 64 293 L 65 293 L 66 294 L 66 297 L 72 297 L 74 295 L 75 295 L 76 296 L 76 297 L 78 299 L 79 299 L 80 300 L 80 301 L 79 302 L 78 302 L 77 301 L 75 303 L 73 303 L 72 302 L 72 297 L 66 297 L 65 298 L 64 298 L 63 297 L 62 297 L 61 298 L 61 299 L 62 300 L 63 300 L 64 299 L 65 299 L 66 300 L 66 305 L 64 307 L 64 308 L 63 309 L 63 310 L 62 311 L 59 311 L 58 310 L 53 310 L 52 309 L 52 308 L 50 308 L 50 310 L 53 310 L 54 311 L 54 314 L 55 315 L 55 316 L 53 318 L 53 319 L 54 320 L 56 320 L 58 322 L 58 323 L 59 324 L 59 326 L 58 327 L 58 329 L 59 329 L 60 328 L 60 327 L 59 326 L 59 325 L 61 323 L 62 323 L 63 322 L 64 322 L 68 326 L 68 328 L 67 329 L 64 329 L 64 333 L 63 334 L 61 334 L 61 336 L 62 337 L 62 338 L 63 339 L 66 339 L 70 343 L 70 345 L 71 346 L 71 349 L 72 350 L 72 351 L 75 354 L 75 355 L 74 356 L 78 366 L 79 366 L 80 367 L 80 369 L 82 371 L 82 372 L 83 373 L 83 374 L 84 375 L 84 378 L 85 379 L 86 379 L 87 380 L 87 381 L 90 384 L 90 385 L 89 386 L 89 387 L 90 387 L 91 386 L 93 386 L 95 388 L 95 390 L 96 391 L 98 389 L 100 389 L 101 390 L 101 393 L 102 394 L 105 394 L 106 395 L 106 396 L 107 397 L 107 400 L 106 401 L 105 401 L 105 402 L 106 403 L 107 403 L 108 402 L 109 402 L 110 403 L 110 404 L 111 405 L 111 406 L 112 407 L 112 409 L 111 410 L 110 410 L 110 412 L 111 412 L 112 411 L 113 411 L 116 414 L 116 416 L 115 417 L 114 417 L 113 416 L 112 416 L 111 415 L 110 415 L 109 414 L 108 414 L 107 413 L 106 413 L 104 411 L 104 408 L 104 411 L 108 415 L 108 418 L 109 417 L 111 417 L 114 420 L 114 421 L 118 421 L 120 423 L 120 424 L 121 425 L 122 424 L 123 424 L 126 427 L 126 430 L 126 429 L 129 426 L 130 426 L 131 427 L 132 427 L 133 428 L 141 426 L 141 425 L 142 424 L 142 422 L 143 421 L 143 420 L 146 417 L 146 416 L 142 414 L 139 414 L 138 413 L 138 410 L 139 409 L 139 408 L 140 407 L 140 406 L 138 404 L 138 402 L 139 401 L 141 401 L 143 403 L 143 402 L 144 401 L 142 401 L 141 400 L 141 398 L 140 398 L 138 396 L 138 394 L 139 393 L 140 393 L 141 394 L 143 394 L 143 391 L 141 391 L 140 390 L 140 386 L 141 385 L 142 385 L 143 386 L 143 387 L 144 388 L 145 388 L 146 387 L 146 385 L 145 384 L 142 384 L 141 383 L 141 382 L 142 381 L 142 378 L 143 377 L 145 378 L 145 380 L 146 381 L 148 381 L 149 380 L 149 378 L 148 377 L 146 377 L 145 378 L 143 377 L 143 374 L 134 369 L 133 370 L 132 370 L 131 369 L 128 368 L 127 369 L 126 369 L 125 368 L 125 365 L 126 364 L 127 364 L 127 362 L 126 361 L 126 359 L 127 358 L 127 357 L 128 356 L 128 352 L 130 350 L 131 350 L 132 351 L 132 354 L 131 355 L 131 356 L 130 357 L 130 361 L 129 362 L 127 362 L 127 364 L 128 365 L 128 368 L 131 369 L 131 366 L 132 365 L 133 365 L 134 366 L 134 369 L 143 374 L 144 373 L 144 372 L 145 371 L 145 369 L 146 368 L 147 368 L 148 369 L 148 374 L 149 374 L 152 377 L 152 382 L 152 381 L 153 380 L 153 379 L 154 378 L 154 377 L 155 376 L 155 375 L 156 374 L 156 373 L 155 372 L 155 371 L 155 371 L 155 373 L 154 374 L 153 374 L 152 373 L 152 371 L 151 370 L 151 369 L 152 368 L 153 368 L 154 369 L 154 370 L 155 371 L 155 371 L 154 370 L 154 369 L 155 368 L 156 368 L 156 367 L 155 366 L 155 365 L 154 364 L 154 362 L 155 361 L 157 361 L 158 362 L 158 363 L 159 364 L 159 365 L 157 367 L 156 367 L 156 368 L 157 369 L 157 370 L 158 370 L 158 369 L 160 367 L 160 366 L 163 363 L 163 362 L 164 361 L 164 359 L 163 358 L 162 359 L 159 359 L 158 358 L 158 355 L 155 354 L 155 356 L 154 357 L 152 357 L 151 356 L 151 355 L 150 354 L 150 353 L 151 352 L 153 352 L 155 354 L 158 355 L 160 353 L 160 351 L 159 350 L 159 349 L 159 349 L 158 350 L 156 350 L 155 349 L 155 346 L 156 345 L 157 345 L 158 346 L 158 347 L 159 348 L 159 349 L 159 349 L 160 348 L 162 348 L 163 347 L 164 347 L 164 347 L 163 346 L 163 345 L 162 344 L 162 342 L 161 342 L 160 343 L 157 343 L 156 342 L 156 341 L 155 341 L 154 340 L 154 339 L 155 338 L 158 338 L 161 341 L 161 342 L 162 342 L 163 341 L 165 341 L 167 343 L 167 345 L 165 347 L 164 347 L 164 347 L 165 348 L 165 351 L 164 352 L 163 352 L 163 353 L 162 354 L 162 356 L 163 357 L 163 358 L 164 359 L 167 356 L 167 354 L 166 353 L 166 352 L 167 351 L 168 351 L 169 352 L 169 350 L 170 349 L 170 348 L 169 347 L 169 345 L 170 344 L 171 344 L 172 343 L 172 340 L 171 339 L 171 338 L 171 338 L 170 339 L 169 339 L 168 340 L 167 340 L 165 338 L 165 335 L 164 334 L 164 336 L 163 337 L 160 337 L 159 336 L 159 335 L 158 334 L 158 333 L 158 333 L 157 334 L 155 334 L 154 335 L 153 335 L 152 334 L 152 330 L 153 329 L 154 329 L 155 328 L 156 328 L 156 328 L 155 327 L 155 324 L 156 323 L 159 323 L 160 324 L 160 325 L 159 326 L 158 326 L 158 327 L 157 328 L 156 328 L 156 328 L 157 329 L 157 331 L 158 332 L 158 333 L 158 333 L 159 332 L 160 332 L 161 331 L 162 331 L 163 332 L 163 333 L 164 334 L 165 335 L 166 334 L 169 334 L 169 334 L 168 333 L 168 329 L 169 328 L 170 328 L 171 327 L 172 327 L 173 328 L 173 331 L 170 334 L 169 334 L 169 334 L 170 335 L 170 336 L 171 337 L 171 338 L 171 338 L 172 337 L 174 337 L 175 336 L 176 336 L 176 336 L 175 335 L 175 332 L 178 329 L 178 327 L 177 326 L 177 325 L 177 325 L 176 326 L 174 326 L 173 327 L 172 327 L 171 326 L 171 324 L 170 323 L 170 322 L 170 322 L 169 323 L 168 323 L 167 324 L 166 324 L 165 323 L 165 322 L 164 321 L 164 320 L 166 318 L 168 318 L 169 319 L 169 320 L 170 321 L 170 322 L 170 322 L 171 321 L 173 321 L 174 320 L 175 320 L 175 320 L 174 319 L 174 318 L 172 316 L 172 315 L 173 314 L 177 314 L 179 316 L 179 318 L 178 319 L 177 319 L 176 320 L 175 320 L 175 320 L 176 321 L 176 323 L 177 324 L 177 325 L 177 325 L 178 324 L 179 324 L 180 323 L 181 323 L 182 324 L 182 325 L 184 327 L 184 328 L 184 328 L 186 326 L 188 326 L 189 327 L 189 330 L 187 332 L 186 332 L 184 330 L 184 328 L 184 328 L 183 329 L 181 329 L 180 330 L 180 334 L 179 335 L 178 335 L 177 336 L 176 336 L 176 336 L 177 337 L 177 339 L 178 340 L 178 341 L 177 342 L 176 342 L 174 344 L 174 345 L 175 346 L 176 346 L 178 344 L 179 344 L 179 343 L 178 342 L 178 341 L 179 340 L 185 340 L 186 339 L 187 339 L 187 338 L 185 338 L 184 339 L 183 339 L 182 338 L 182 337 L 181 336 L 181 335 L 183 333 L 185 333 L 188 336 L 190 336 L 191 335 L 192 335 L 192 335 L 191 334 L 191 330 L 192 329 L 193 329 L 194 328 L 195 328 L 195 328 L 194 327 L 194 326 L 193 325 L 193 324 L 195 322 L 197 322 L 199 324 L 199 326 L 198 327 L 197 327 L 196 328 L 195 328 L 195 328 L 196 329 L 196 333 L 195 334 L 194 334 L 193 335 L 192 335 L 192 335 L 193 336 L 194 335 L 195 335 L 198 332 L 199 332 L 201 330 L 201 329 L 199 327 L 199 326 L 200 325 L 202 325 L 203 324 L 204 324 L 204 324 L 203 323 L 203 320 L 205 318 L 206 318 L 209 321 L 209 322 L 208 323 L 207 323 L 206 324 L 204 324 L 204 324 L 205 325 L 205 327 L 206 328 L 207 327 L 208 327 L 210 325 L 209 324 L 209 322 L 210 321 L 213 321 L 215 323 L 217 323 L 218 322 L 219 322 L 219 320 L 218 319 L 218 318 L 218 318 L 217 319 L 216 319 L 215 320 L 214 320 L 212 318 L 212 316 L 214 314 L 216 314 L 217 315 L 217 316 L 218 317 L 218 318 L 218 318 L 219 317 L 221 317 L 221 314 L 220 313 L 218 313 L 217 314 L 216 314 L 215 313 L 215 311 L 214 310 L 214 309 L 214 309 L 213 310 L 212 310 L 211 311 L 210 311 L 209 310 L 209 309 L 208 308 L 208 306 L 209 305 L 210 305 L 211 304 L 212 304 L 213 305 L 213 307 L 214 308 L 214 309 L 214 309 L 215 308 L 217 308 L 218 307 L 218 305 L 217 304 L 217 301 L 217 301 L 217 302 L 216 303 L 212 303 L 211 302 L 211 301 L 210 300 L 210 299 L 210 299 L 208 301 L 206 301 L 206 301 L 207 302 L 207 306 L 206 307 L 205 307 L 204 308 L 203 308 L 203 308 L 204 309 L 204 311 L 205 312 L 205 313 L 205 313 L 206 312 L 209 312 L 211 314 L 211 315 L 209 317 L 207 317 L 206 316 L 206 315 L 205 314 L 205 313 L 205 313 L 204 314 L 202 314 L 201 315 L 200 315 L 200 315 L 201 316 L 201 317 L 203 319 L 203 320 L 202 321 L 198 321 L 196 319 L 196 317 L 196 317 L 195 318 L 193 318 L 192 319 L 192 322 L 193 323 L 193 324 L 192 325 L 190 325 L 189 326 L 188 326 L 187 325 L 187 323 L 186 322 L 186 321 L 186 321 L 185 322 L 184 322 L 183 323 L 182 323 L 181 322 L 181 321 L 180 320 L 180 318 L 181 317 L 182 317 L 183 316 L 184 316 L 184 316 L 183 315 L 183 312 L 185 310 L 186 310 L 188 312 L 188 314 L 187 315 L 186 315 L 185 316 L 184 316 L 184 316 L 185 317 L 185 319 L 186 320 L 186 321 L 186 321 L 187 320 L 188 320 L 190 318 L 190 317 L 189 316 L 189 314 L 190 313 L 193 313 L 196 316 L 196 317 L 196 317 L 197 316 L 198 316 L 199 315 L 200 315 L 200 315 L 199 314 L 199 312 L 198 311 L 198 310 L 198 310 L 197 311 L 196 311 L 195 312 L 194 312 L 192 310 L 192 308 L 192 308 L 191 309 L 187 309 L 186 308 L 186 307 L 185 306 L 185 305 L 185 305 L 184 306 L 182 306 L 181 307 L 180 307 L 180 307 L 181 308 L 181 309 L 182 310 L 182 311 L 181 312 L 180 312 L 179 313 L 178 313 L 176 311 L 176 309 L 177 308 L 178 308 L 179 307 L 180 307 L 180 307 L 179 306 L 179 305 L 180 304 L 180 303 L 182 301 L 172 289 L 171 289 L 170 290 L 168 290 L 167 289 L 166 289 L 165 288 L 164 288 L 163 287 L 162 287 L 161 286 L 159 286 L 159 287 L 160 288 L 160 289 L 163 292 L 163 293 L 164 294 L 164 295 L 163 296 L 163 297 L 161 299 L 160 299 L 158 301 L 155 301 L 153 299 L 152 299 L 149 296 L 149 298 L 150 299 L 150 302 L 151 303 L 151 306 L 148 309 L 147 309 L 146 310 L 142 310 L 139 307 L 139 306 L 137 304 L 137 303 L 136 302 L 136 301 L 135 300 L 135 299 L 134 298 L 134 296 L 133 295 L 133 287 L 132 286 L 132 285 L 131 283 L 130 284 L 129 284 L 128 285 L 127 285 L 126 286 L 127 287 L 127 288 L 125 290 L 124 290 L 121 300 L 122 301 L 122 303 L 120 305 L 119 305 L 118 304 L 118 302 L 120 300 L 121 300 L 124 290 L 122 288 L 122 287 L 123 286 L 126 286 L 127 285 L 126 284 L 126 283 L 125 282 L 125 281 L 127 279 L 129 279 L 130 280 L 130 281 L 131 282 L 131 283 L 132 285 L 135 282 L 137 282 L 137 281 L 138 280 L 138 278 L 139 277 L 139 276 L 140 275 L 140 274 L 140 273 L 138 273 L 137 272 L 137 270 L 138 269 L 139 269 L 140 268 L 141 268 L 142 269 L 142 271 L 140 273 L 140 274 L 142 272 L 144 272 L 145 271 L 145 270 L 146 269 L 146 268 L 150 264 L 151 264 L 152 263 L 164 263 L 165 264 L 165 266 L 164 267 L 164 269 L 165 270 L 165 271 L 168 274 L 169 274 L 172 277 L 173 277 L 175 279 L 175 280 L 176 281 L 176 283 L 175 284 L 175 285 L 174 286 L 174 287 L 172 289 L 182 301 L 183 301 L 184 302 L 184 303 L 185 304 L 185 305 L 185 305 L 186 304 L 187 304 L 188 303 L 189 303 L 190 304 L 190 305 L 192 307 L 192 308 L 192 308 L 194 306 L 196 306 L 197 307 L 197 308 L 198 309 L 198 310 L 198 310 L 199 309 L 201 309 L 202 308 L 203 308 L 203 308 L 202 307 L 202 306 L 200 304 L 200 304 L 199 305 L 198 305 L 197 306 L 196 306 L 195 305 L 195 303 L 194 302 L 194 301 L 194 301 L 193 302 L 190 302 L 188 300 L 188 298 L 189 297 L 190 297 L 191 296 L 192 296 L 193 297 L 193 299 L 194 300 L 194 301 L 194 301 L 195 300 L 196 300 L 197 299 L 199 299 L 199 299 L 198 298 L 198 296 L 197 295 L 197 294 L 198 293 L 202 293 L 203 294 L 203 295 L 204 296 L 204 297 L 203 298 L 201 298 L 200 299 L 199 299 L 199 299 L 200 300 L 200 304 L 200 304 L 200 303 L 201 302 L 204 302 L 205 301 L 206 301 L 206 301 L 205 300 L 205 299 L 204 298 L 204 297 L 205 296 L 206 296 L 206 294 L 208 292 L 213 292 L 215 294 L 215 296 L 214 297 L 212 297 L 211 296 L 209 296 L 210 297 L 210 299 L 210 299 L 211 298 L 215 298 L 216 299 L 216 300 L 217 301 L 217 301 L 218 300 L 216 298 L 216 296 L 217 295 L 218 295 L 218 294 L 217 293 L 217 291 L 219 289 L 213 278 L 212 278 L 211 279 L 205 279 L 204 278 L 203 278 L 202 277 L 201 277 L 200 276 L 199 276 L 198 275 L 197 275 L 196 276 L 195 276 L 190 271 L 190 270 L 189 269 L 189 268 L 188 267 L 188 266 L 187 265 L 187 263 L 186 262 L 186 258 L 185 257 L 185 251 L 184 250 L 184 243 L 185 242 L 185 236 L 186 235 L 186 233 L 187 232 L 187 231 L 188 230 L 188 229 L 194 223 L 188 216 L 185 219 L 185 220 L 179 226 L 176 226 L 175 225 L 173 225 L 172 228 L 170 229 L 170 231 L 169 232 L 164 232 L 162 230 L 162 226 L 161 225 L 161 218 L 160 217 L 160 212 L 161 211 L 162 206 L 165 201 L 165 199 L 166 197 L 174 188 L 175 188 L 182 182 L 184 183 L 184 182 L 186 180 L 193 180 L 195 179 L 195 177 L 196 175 L 203 167 L 203 166 L 205 164 L 207 160 L 215 152 L 216 152 L 234 134 L 235 134 L 238 131 L 240 130 L 249 130 L 250 129 L 253 129 L 254 128 L 257 128 L 258 127 L 267 127 L 267 126 L 264 123 L 264 122 L 260 118 L 259 118 L 254 114 L 248 111 L 246 111 L 243 109 L 241 109 L 240 108 L 238 108 L 234 106 L 227 105 L 226 104 L 222 104 L 221 103 L 218 103 L 217 102 L 213 102 L 212 101 L 209 101 L 205 99 L 202 99 L 198 96 L 194 98 L 189 98 L 187 100 L 186 100 L 185 99 L 184 100 L 184 101 L 183 102 L 182 102 L 181 103 L 179 103 L 178 104 L 176 104 L 175 103 L 174 104 L 174 105 L 172 107 L 170 107 L 169 106 L 169 105 L 171 103 L 173 103 L 174 104 L 175 103 L 175 102 L 178 99 L 179 99 L 180 98 L 181 98 L 182 99 L 183 99 L 184 100 L 185 99 L 185 96 L 188 94 L 191 94 L 192 95 L 195 94 L 199 87 L 201 87 L 205 89 L 208 89 L 209 90 L 211 90 L 212 91 L 214 91 L 218 93 L 221 93 L 222 94 L 224 94 L 225 95 L 227 95 L 231 97 L 234 97 L 235 98 L 237 98 L 238 99 L 240 99 L 244 101 L 247 101 L 250 103 L 252 103 L 258 106 L 260 106 L 271 112 L 273 112 L 279 116 L 279 112 L 278 111 L 278 109 L 277 108 L 277 104 L 276 103 L 276 98 L 277 96 L 280 93 L 281 93 L 283 95 L 287 97 L 290 100 L 291 100 L 298 107 L 302 115 L 303 114 L 305 115 L 318 110 L 318 109 L 319 108 L 323 108 L 324 109 L 334 109 L 335 108 L 336 108 L 337 107 L 339 107 L 340 108 L 340 110 L 339 111 L 335 111 L 334 110 L 334 109 L 324 109 L 324 111 L 323 112 L 320 112 L 318 110 L 305 115 L 305 116 L 303 117 L 303 119 L 304 120 L 304 124 L 305 125 L 308 125 L 310 127 L 308 131 L 311 134 L 313 138 L 327 151 L 329 152 L 331 152 L 332 153 L 337 153 L 338 154 L 341 154 L 341 152 L 340 151 L 338 151 L 336 152 L 335 151 L 335 148 L 337 147 L 337 145 L 339 142 L 345 142 L 347 141 L 347 140 L 345 138 L 344 138 L 341 142 L 337 142 L 336 140 L 337 139 L 339 139 L 340 138 L 340 136 L 344 132 L 345 132 L 346 134 L 348 135 L 349 134 L 349 132 L 347 130 L 347 129 L 348 128 L 352 128 L 353 127 L 354 127 L 352 125 L 352 124 L 353 123 L 354 123 L 355 124 L 356 124 L 358 126 L 358 127 L 357 128 L 356 128 L 355 127 L 354 127 L 353 127 L 355 128 L 355 130 L 356 131 L 358 131 L 360 129 L 361 129 L 362 130 L 362 133 L 366 133 L 369 136 L 371 137 L 373 137 L 382 142 L 387 143 L 390 145 L 394 145 L 396 147 L 400 147 L 402 149 L 402 150 L 405 150 L 406 149 L 406 146 L 408 144 L 410 144 L 412 146 L 417 145 L 418 146 L 418 148 L 420 149 L 421 148 L 423 148 L 425 151 L 428 151 L 430 150 L 432 154 L 434 154 L 436 150 L 444 150 L 445 148 L 443 146 L 439 148 L 437 144 L 434 144 L 434 146 L 433 147 L 431 147 L 430 145 L 432 143 L 430 141 L 426 141 L 426 141 L 427 142 L 427 144 L 426 145 L 424 145 L 423 144 L 423 143 L 425 141 L 426 141 L 426 141 L 423 138 L 421 139 L 421 140 L 421 142 L 420 143 L 418 143 L 416 141 L 416 140 L 418 138 L 419 138 L 421 140 L 421 139 L 418 137 L 418 136 L 422 132 L 423 132 L 424 134 L 426 135 L 427 133 L 426 132 L 424 132 L 423 130 L 426 127 L 428 128 L 429 127 L 429 124 L 435 117 L 435 116 L 437 114 L 439 110 L 441 109 L 443 111 L 444 109 L 443 107 L 442 108 L 440 107 L 439 98 L 437 95 L 437 93 L 436 91 L 434 89 L 434 88 L 432 86 L 432 85 L 430 83 L 428 79 L 422 72 L 420 68 L 417 65 L 417 64 L 415 62 L 415 61 L 413 59 L 413 58 L 411 56 L 411 55 L 409 53 L 409 52 L 407 50 L 407 49 L 405 47 L 405 46 L 403 44 L 403 43 L 401 41 L 401 40 L 399 38 L 399 37 L 397 35 L 395 31 L 392 28 L 392 27 L 387 21 L 387 20 L 380 12 L 376 10 L 373 10 L 372 9 L 370 9 L 369 8 L 365 8 L 364 7 L 364 8 L 369 9 L 374 12 L 376 12 L 380 14 L 383 18 L 383 21 L 384 23 L 383 25 L 364 44 L 364 45 L 359 50 L 358 50 L 345 63 L 344 63 L 342 65 L 333 65 L 332 64 L 330 64 L 329 63 L 324 62 L 306 53 L 304 51 L 299 49 L 297 47 L 295 43 L 295 41 L 298 37 L 298 36 L 302 32 L 302 31 L 296 36 L 296 37 L 293 41 L 293 46 L 297 51 L 297 52 L 300 55 L 299 60 L 300 60 L 300 59 L 302 58 L 311 69 L 310 72 L 310 71 L 312 70 L 313 72 L 317 76 L 317 77 L 320 80 L 320 83 L 318 85 L 316 84 L 309 84 L 308 83 L 301 83 L 299 81 L 294 82 L 292 80 L 292 78 L 289 81 L 278 81 L 276 79 L 275 79 L 273 81 L 270 81 L 269 80 L 269 77 L 268 77 L 268 79 L 267 80 L 255 80 L 253 78 L 252 78 L 250 80 L 238 80 L 236 79 L 234 81 L 231 81 L 230 80 L 231 78 L 230 77 L 229 78 L 230 79 L 230 81 L 229 82 L 223 82 L 221 81 L 219 79 L 218 79 L 219 80 L 219 82 L 218 83 L 217 83 L 216 84 L 214 84 L 213 83 L 213 82 L 215 80 L 216 80 L 217 79 L 218 79 L 219 79 L 219 78 L 217 78 L 216 76 L 214 76 L 213 77 L 209 77 L 208 76 L 208 74 L 210 72 L 211 72 L 214 75 L 214 76 L 216 76 L 220 73 L 222 74 L 222 76 L 224 76 L 223 73 L 224 72 L 224 70 L 226 69 L 226 67 L 224 68 L 222 68 L 221 66 L 218 64 L 219 62 L 218 60 L 216 59 L 216 57 L 217 56 L 214 55 L 196 64 L 196 65 L 199 66 L 203 69 L 203 71 L 202 72 L 200 72 L 199 73 L 199 75 L 197 77 L 196 77 L 196 80 L 197 81 L 198 81 L 198 79 L 200 77 L 202 78 L 202 80 L 200 83 L 202 83 L 203 84 L 202 86 L 199 86 L 197 85 L 189 89 L 185 89 L 185 90 L 183 92 L 183 92 L 185 92 L 186 93 L 186 94 L 185 95 L 184 95 L 183 96 L 182 96 L 181 95 L 181 94 L 183 92 L 183 92 L 181 93 L 179 93 L 178 94 L 175 94 L 170 98 L 167 98 L 166 99 L 166 101 L 162 105 L 161 105 L 156 109 L 154 108 L 152 112 L 150 113 L 147 113 L 145 112 L 144 113 L 144 116 L 141 119 L 140 119 L 139 122 L 137 124 L 135 124 L 133 122 L 132 123 L 132 126 L 131 127 L 127 129 L 123 127 L 123 131 L 120 134 L 113 131 L 111 129 L 111 127 L 114 124 L 115 124 L 117 127 L 118 126 L 118 125 L 116 125 L 115 123 L 117 121 L 120 121 L 121 120 L 121 118 L 124 115 L 124 112 L 127 109 L 128 109 L 128 108 L 125 105 L 125 104 L 129 101 L 134 101 L 135 102 L 135 101 L 131 101 L 130 100 L 130 98 L 129 98 L 125 102 L 123 106 L 120 106 L 119 104 L 121 103 L 121 101 L 123 99 L 123 98 L 121 96 L 121 97 L 120 98 L 118 98 L 112 105 L 110 105 L 108 108 L 105 108 L 104 107 L 106 103 L 105 104 L 103 104 L 102 105 L 102 107 L 100 108 L 99 110 L 93 116 L 93 117 L 91 118 L 85 124 L 84 127 L 79 132 L 79 133 L 73 140 L 73 141 L 71 143 L 72 145 L 72 147 L 71 149 L 58 162 L 58 163 L 50 171 L 50 172 L 42 181 L 41 181 L 39 178 L 38 178 Z" fill="none" stroke="black" stroke-width="1"/>
</svg>